<svg width="48" height="48" viewBox="0 0 48 48" fill="none" xmlns="http://www.w3.org/2000/svg">
<rect width="48" height="48" rx="16" fill="white"/>
<path d="M23.9402 14.21L21.5302 19.82H19.1202C18.7202 19.82 18.3302 19.85 17.9502 19.93L18.9502 17.53L18.9902 17.44L19.0502 17.28C19.0802 17.21 19.1002 17.15 19.1302 17.1C20.2902 14.41 21.5902 13.57 23.9402 14.21Z" fill="#020202"/>
<path d="M30.7301 20.09L30.7101 20.08C30.1101 19.91 29.5001 19.82 28.8801 19.82H22.6201L24.8701 14.59L24.9001 14.52C25.0401 14.57 25.1901 14.64 25.3401 14.69L27.5501 15.62C28.7801 16.13 29.6401 16.66 30.1701 17.3C30.2601 17.42 30.3401 17.53 30.4201 17.66C30.5101 17.8 30.5801 17.94 30.6201 18.09C30.6601 18.18 30.6901 18.26 30.7101 18.35C30.8601 18.86 30.8701 19.44 30.7301 20.09Z" fill="#020202"/>
<path d="M24.52 29.66H24.77C25.07 29.66 25.32 29.39 25.32 29.06C25.32 28.64 25.2 28.58 24.94 28.48L24.52 28.33V29.66Z" fill="#020202"/>
<path d="M30.2902 21.5199C29.8402 21.3899 29.3702 21.3199 28.8802 21.3199H19.1202C18.4402 21.3199 17.8002 21.4499 17.2002 21.7099C15.4602 22.4599 14.2402 24.1899 14.2402 26.1999V28.1499C14.2402 28.3899 14.2602 28.6199 14.2902 28.8599C14.5102 32.0399 16.2102 33.7399 19.3902 33.9499C19.6202 33.9799 19.8502 33.9999 20.1002 33.9999H27.9002C31.6002 33.9999 33.5502 32.2399 33.7402 28.7399C33.7502 28.5499 33.7602 28.3499 33.7602 28.1499V26.1999C33.7602 23.9899 32.2902 22.1299 30.2902 21.5199ZM25.2802 27.4999C25.7402 27.6599 26.3602 27.9999 26.3602 29.0599C26.3602 29.9699 25.6502 30.6999 24.7702 30.6999H24.5202V30.9199C24.5202 31.2099 24.2902 31.4399 24.0002 31.4399C23.7102 31.4399 23.4802 31.2099 23.4802 30.9199V30.6999H23.3902C22.4302 30.6999 21.6402 29.8899 21.6402 28.8899C21.6402 28.5999 21.8702 28.3699 22.1602 28.3699C22.4502 28.3699 22.6802 28.5999 22.6802 28.8899C22.6802 29.3099 23.0002 29.6599 23.3902 29.6599H23.4802V27.9699L22.7202 27.6999C22.2602 27.5399 21.6402 27.1999 21.6402 26.1399C21.6402 25.2299 22.3502 24.4999 23.2302 24.4999H23.4802V24.2799C23.4802 23.9899 23.7102 23.7599 24.0002 23.7599C24.2902 23.7599 24.5202 23.9899 24.5202 24.2799V24.4999H24.6102C25.5702 24.4999 26.3602 25.3099 26.3602 26.3099C26.3602 26.5999 26.1302 26.8299 25.8402 26.8299C25.5502 26.8299 25.3202 26.5999 25.3202 26.3099C25.3202 25.8899 25.0002 25.5399 24.6102 25.5399H24.5202V27.2299L25.2802 27.4999Z" fill="#020202"/>
<path d="M22.6802 26.14C22.6802 26.56 22.8002 26.62 23.0602 26.72L23.4802 26.87V25.54H23.2302C22.9202 25.54 22.6802 25.81 22.6802 26.14Z" fill="#020202"/>
</svg>
