<svg width="48" height="48" viewBox="0 0 48 48" fill="none" xmlns="http://www.w3.org/2000/svg">
<rect width="48" height="48" rx="16" fill="white"/>
<path d="M17 27C14.79 27 13 28.79 13 31C13 31.75 13.21 32.46 13.58 33.06C14.27 34.22 15.54 35 17 35C18.46 35 19.73 34.22 20.42 33.06C20.79 32.46 21 31.75 21 31C21 28.79 19.21 27 17 27ZM18.97 30.67L16.84 32.64C16.7 32.77 16.51 32.84 16.33 32.84C16.14 32.84 15.95 32.77 15.8 32.62L14.81 31.63C14.52 31.34 14.52 30.86 14.81 30.57C15.1 30.28 15.58 30.28 15.87 30.57L16.35 31.05L17.95 29.57C18.25 29.29 18.73 29.31 19.01 29.61C19.29 29.91 19.27 30.39 18.97 30.67Z" fill="#020202"/>
<path d="M33.5 24.5H31C29.9 24.5 29 25.4 29 26.5C29 27.6 29.9 28.5 31 28.5H33.5C33.78 28.5 34 28.28 34 28V25C34 24.72 33.78 24.5 33.5 24.5Z" fill="#020202"/>
<path d="M28.5302 17.4C28.8302 17.69 28.5802 18.14 28.1602 18.14L19.8802 18.13C19.4002 18.13 19.1602 17.55 19.5002 17.21L21.2502 15.45C22.7302 13.98 25.1202 13.98 26.6002 15.45L28.4902 17.36C28.5002 17.37 28.5202 17.39 28.5302 17.4Z" fill="#020202"/>
<path d="M33.8699 30.66C33.2599 32.72 31.4999 34 29.0999 34H22.5999C22.2099 34 21.9599 33.57 22.1199 33.21C22.4199 32.51 22.6099 31.72 22.6099 31C22.6099 27.97 20.1399 25.5 17.1099 25.5C16.3499 25.5 15.6099 25.66 14.9299 25.96C14.5599 26.12 14.1099 25.87 14.1099 25.47V24C14.1099 21.28 15.7499 19.38 18.2999 19.06C18.5499 19.02 18.8199 19 19.0999 19H29.0999C29.3599 19 29.6099 19.01 29.8499 19.05C31.8699 19.28 33.3299 20.51 33.8699 22.34C33.9699 22.67 33.7299 23 33.3899 23H31.0999C28.9299 23 27.2099 24.98 27.6799 27.23C28.0099 28.87 29.5299 30 31.1999 30H33.3899C33.7399 30 33.9699 30.34 33.8699 30.66Z" fill="#020202"/>
</svg>
