<svg width="48" height="48" viewBox="0 0 48 48" fill="none" xmlns="http://www.w3.org/2000/svg">
<rect x="0.5" y="0.5" width="47" height="47" rx="15.5" fill="white"/>
<rect x="0.5" y="0.5" width="47" height="47" rx="15.5" stroke="#E3E3E3"/>
<g clip-path="url(#clip0_6412_3916)">
<path d="M31.5009 17.4706C32.0133 15.9849 31.2057 14.3714 29.697 13.8668C28.1884 13.3622 26.5501 14.1575 26.0377 15.6432C25.5252 17.1289 26.3328 18.7423 27.8415 19.2469C29.3501 19.7515 30.9885 18.9562 31.5009 17.4706Z" fill="#F28E46"/>
<path d="M21.8185 30.0237C22.03 30.0915 22.2206 30.1481 22.394 30.184C22.4135 30.1882 22.433 30.1918 22.4526 30.1952C22.6411 30.2297 22.8088 30.2365 22.9604 30.2032C23.24 30.1639 23.513 30.0532 23.7476 29.8642L28.1593 26.3109C27.2182 25.9065 26.4925 25.3826 25.9637 24.9046C24.4763 23.5601 23.9067 22.0303 23.8833 21.9659C23.6367 21.2913 23.9934 20.5448 24.6786 20.302C24.8227 20.2508 24.9732 20.2248 25.1257 20.2248C25.6783 20.2248 26.1768 20.5684 26.3664 21.0798C26.3857 21.1305 26.58 21.6236 27.0328 22.2145C27.4444 21.2206 27.3333 20.0601 26.5503 19.564C25.6016 18.9627 23.908 19.0146 22.6929 20.5607C21.0348 22.6962 20.3158 24.2067 19.7137 26.9677C19.4295 29.0198 20.7011 29.6656 21.8185 30.0237Z" fill="#F28E46"/>
<path d="M31.6637 24.3969C31.9153 24.3969 32.175 24.3832 32.4399 24.3578L30.5414 22.2644C29.97 21.6342 28.9957 21.559 28.3315 22.0941L27.5371 22.734L27.5073 22.758C28.3238 23.581 29.6423 24.3969 31.6637 24.3969ZM33.5904 26.8277C32.9252 26.9419 32.2713 26.9999 31.6467 26.9999C31.2337 26.9999 30.8438 26.9722 30.4716 26.9263L33.1512 29.8807C33.4677 30.2299 33.9065 30.4078 34.347 30.4077C34.7269 30.4077 35.1084 30.2753 35.414 30.0065C36.0742 29.4258 36.1314 28.4282 35.5417 27.7781L34.3243 26.4357C34.1353 26.6342 33.883 26.7773 33.5904 26.8277Z" fill="#F28E46"/>
<path d="M24.7784 20.5752C24.2454 20.7641 23.9688 21.3427 24.1607 21.8676C24.1832 21.9294 24.7301 23.3953 26.163 24.6905C27.2443 25.6678 29.0144 26.7094 31.6468 26.7094C32.2343 26.7094 32.8648 26.6575 33.5399 26.5414C34.0981 26.4455 34.4716 25.9224 34.3741 25.3727C34.2767 24.823 33.7442 24.4553 33.1873 24.5513C27.7892 25.478 26.1606 21.3668 26.0894 21.1791C25.8958 20.6572 25.3093 20.3865 24.7784 20.5752ZM37.9912 33.104L36.4953 30.3261L34.6576 31.2942L30.8752 30.4735L27.1449 31.6916L25.3432 31.3128L22.1527 31.1234L20.3885 30.4289L18.5117 29.1662L17.148 30.1438C15.2737 28.9849 14.3868 27.2464 14.0131 26.2597C14.5326 25.8227 16.029 24.8319 19.0976 24.6249C16.7215 23.9039 15.3239 24.2173 14.5131 24.7287C14.4738 24.1232 14.8774 23.0344 17.87 22.2749C15.0393 21.8525 13.9462 22.9738 13.537 24.0788C13.5569 23.169 13.7676 21.8948 14.5312 20.4366C12.9192 21.847 12.5303 23.5606 12.4776 24.7096C11.3804 24.4649 9.5627 24.5927 8 27.2379C10.342 25.8177 11.5672 25.9009 12.1075 26.0948C11.2907 26.6297 10.3842 27.8561 10.4743 30.6691C11.3431 28.2171 12.4709 27.0153 13.1313 26.4839C13.6111 28.3318 15.3456 30.3823 16.0506 31.1593L14.6832 33.9642L13.3319 34.7295L12.8063 36H40.0001L39.1026 33.7852L37.9912 33.104Z" fill="#F28E46"/>
</g>
<defs>
<clipPath id="clip0_6412_3916">
<rect width="32" height="24" fill="white" transform="translate(8 12)"/>
</clipPath>
</defs>
</svg>
