<svg width="48" height="48" viewBox="0 0 48 48" fill="none" xmlns="http://www.w3.org/2000/svg">
<rect x="0.5" y="0.5" width="47" height="47" rx="15.5" fill="white"/>
<rect x="0.5" y="0.5" width="47" height="47" rx="15.5" stroke="#E3E3E3"/>
<path d="M32 17H22.2L29 23.8C29.1 23.3 29.5 23 30 23C30.6 23 31 23.4 31 24C31 24.5 30.7 24.9 30.2 25L34.6 29.4C34.9 29 35 28.5 35 28V20C35 18.3 33.7 17 32 17ZM33.2 30.8L27 24.6L23.5 21L19.4 17L16.7 14.3C16.3 13.9 15.7 13.9 15.3 14.3C14.9 14.7 14.9 15.3 15.3 15.7L16.6 17H16C14.3 17 13 18.3 13 20V28C13 29.7 14.3 31 16 31H30.6L33.3 33.7C33.7 34.1 34.3 34.1 34.7 33.7C35.1 33.3 35.1 32.7 34.7 32.3L33.2 30.8ZM18 25C17.4 25 17 24.6 17 24C17 23.4 17.4 23 18 23C18.6 23 19 23.4 19 24C19 24.6 18.6 25 18 25ZM24.6 26.9C23 27.2 21.4 26.2 21.1 24.5C21 24.1 21 23.7 21.1 23.3C21.2 22.8 21.4 22.4 21.7 22L25.9 26.2C25.5 26.6 25.1 26.8 24.6 26.9Z" fill="#F28E46"/>
</svg>
