<svg width="1280" height="351" viewBox="0 0 1280 351" fill="none" xmlns="http://www.w3.org/2000/svg">
<g opacity="0.6">
<g opacity="0.6">
<mask id="path-1-inside-1_6158_600" fill="white">
<path d="M320.771 350.999L160.385 350.999L160.385 234L320.771 234L320.771 350.999Z"/>
</mask>
<path d="M320.771 350.999L160.385 350.999L160.385 234L320.771 234L320.771 350.999Z" fill="white" fill-opacity="0.15"/>
<path d="M320.771 350.999L320.771 352.135L321.906 352.135L321.906 350.999L320.771 350.999ZM160.385 350.999L159.249 350.999L159.249 352.135L160.385 352.135L160.385 350.999ZM160.385 234L160.385 232.864L159.249 232.864L159.249 234L160.385 234ZM320.771 234L321.906 234L321.906 232.864L320.771 232.864L320.771 234ZM320.771 350.999L320.771 349.864L160.385 349.864L160.385 350.999L160.385 352.135L320.771 352.135L320.771 350.999ZM160.385 350.999L161.521 350.999L161.521 234L160.385 234L159.249 234L159.249 350.999L160.385 350.999ZM160.385 234L160.385 235.135L320.771 235.135L320.771 234L320.771 232.864L160.385 232.864L160.385 234ZM320.771 234L319.635 234L319.635 350.999L320.771 350.999L321.906 350.999L321.906 234L320.771 234Z" fill="#E9EAEB" mask="url(#path-1-inside-1_6158_600)"/>
<mask id="path-3-inside-2_6158_600" fill="white">
<path d="M640 350.999L479.614 350.999L479.614 233.999L640 233.999L640 350.999Z"/>
</mask>
<path d="M640 350.999L479.614 350.999L479.614 233.999L640 233.999L640 350.999Z" fill="white" fill-opacity="0.15"/>
<path d="M640 350.999L640 352.134L641.136 352.134L641.136 350.999L640 350.999ZM479.614 350.999L478.479 350.999L478.479 352.134L479.614 352.134L479.614 350.999ZM479.614 233.999L479.614 232.863L478.479 232.863L478.479 233.999L479.614 233.999ZM640 233.999L641.136 233.999L641.136 232.863L640 232.863L640 233.999ZM640 350.999L640 349.863L479.614 349.863L479.614 350.999L479.614 352.134L640 352.134L640 350.999ZM479.614 350.999L480.75 350.999L480.75 233.999L479.614 233.999L478.479 233.999L478.479 350.999L479.614 350.999ZM479.614 233.999L479.614 235.135L640 235.135L640 233.999L640 232.863L479.614 232.863L479.614 233.999ZM640 233.999L638.864 233.999L638.864 350.999L640 350.999L641.136 350.999L641.136 233.999L640 233.999Z" fill="#E9EAEB" mask="url(#path-3-inside-2_6158_600)"/>
<mask id="path-5-inside-3_6158_600" fill="white">
<path d="M479.614 350.998L319.229 350.998L319.229 233.999L479.614 233.999L479.614 350.998Z"/>
</mask>
<path d="M479.614 350.998L319.229 350.998L319.229 233.999L479.614 233.999L479.614 350.998Z" fill="white" fill-opacity="0.15"/>
<path d="M479.614 350.998L479.614 352.134L480.75 352.134L480.75 350.998L479.614 350.998ZM319.229 350.998L318.093 350.998L318.093 352.134L319.229 352.134L319.229 350.998ZM319.229 233.999L319.229 232.863L318.093 232.863L318.093 233.999L319.229 233.999ZM479.614 233.999L480.75 233.999L480.75 232.863L479.614 232.863L479.614 233.999ZM479.614 350.998L479.614 349.863L319.229 349.863L319.229 350.998L319.229 352.134L479.614 352.134L479.614 350.998ZM319.229 350.998L320.364 350.998L320.364 233.999L319.229 233.999L318.093 233.999L318.093 350.998L319.229 350.998ZM319.229 233.999L319.229 235.134L479.614 235.135L479.614 233.999L479.614 232.863L319.229 232.863L319.229 233.999ZM479.614 233.999L478.479 233.999L478.479 350.998L479.614 350.998L480.75 350.998L480.75 233.999L479.614 233.999Z" fill="#E9EAEB" mask="url(#path-5-inside-3_6158_600)"/>
<mask id="path-7-inside-4_6158_600" fill="white">
<path d="M160.386 351L0.000228882 351L0.000233996 234.001L160.386 234.001L160.386 351Z"/>
</mask>
<path d="M160.386 351L0.000228882 351L0.000233996 234.001L160.386 234.001L160.386 351Z" fill="white" fill-opacity="0.4"/>
<path d="M160.386 351L160.386 352.136L161.521 352.136L161.521 351L160.386 351ZM0.000228882 351L-1.13535 351L-1.13535 352.136L0.000228832 352.136L0.000228882 351ZM0.000233996 234.001L0.000234046 232.865L-1.13534 232.865L-1.13534 234.001L0.000233996 234.001ZM160.386 234.001L161.521 234.001L161.521 232.865L160.386 232.865L160.386 234.001ZM160.386 351L160.386 349.864L0.000228931 349.864L0.000228882 351L0.000228832 352.136L160.386 352.136L160.386 351ZM0.000228882 351L1.1358 351L1.13581 234.001L0.000233996 234.001L-1.13534 234.001L-1.13535 351L0.000228882 351ZM0.000233996 234.001L0.000233946 235.136L160.386 235.136L160.386 234.001L160.386 232.865L0.000234046 232.865L0.000233996 234.001ZM160.386 234.001L159.25 234.001L159.25 351L160.386 351L161.521 351L161.521 234.001L160.386 234.001Z" fill="#E9EAEB" mask="url(#path-7-inside-4_6158_600)"/>
<mask id="path-9-inside-5_6158_600" fill="white">
<path d="M640 234L479.614 234L479.614 117L640 117L640 234Z"/>
</mask>
<path d="M640 234L479.614 234L479.614 117L640 117L640 234Z" fill="white" fill-opacity="0.15"/>
<path d="M640 234L640 235.135L641.136 235.135L641.136 234L640 234ZM479.614 234L478.479 234L478.479 235.135L479.614 235.135L479.614 234ZM479.614 117L479.614 115.865L478.479 115.865L478.479 117L479.614 117ZM640 117L641.136 117L641.136 115.865L640 115.865L640 117ZM640 234L640 232.864L479.614 232.864L479.614 234L479.614 235.135L640 235.135L640 234ZM479.614 234L480.75 234L480.75 117L479.614 117L478.479 117L478.479 234L479.614 234ZM479.614 117L479.614 118.136L640 118.136L640 117L640 115.865L479.614 115.865L479.614 117ZM640 117L638.864 117L638.864 234L640 234L641.136 234L641.136 117L640 117Z" fill="#E9EAEB" mask="url(#path-9-inside-5_6158_600)"/>
<mask id="path-11-inside-6_6158_600" fill="white">
<path d="M479.615 234L319.23 234L319.23 117.001L479.615 117.001L479.615 234Z"/>
</mask>
<path d="M479.615 234L319.23 234L319.23 117.001L479.615 117.001L479.615 234Z" fill="white" fill-opacity="0.4"/>
<path d="M319.23 117.001L319.23 115.865L318.094 115.865L318.094 117.001L319.23 117.001ZM319.23 234L320.365 234L320.365 117.001L319.23 117.001L318.094 117.001L318.094 234L319.23 234ZM319.23 117.001L319.23 118.136L479.615 118.136L479.615 117.001L479.615 115.865L319.23 115.865L319.23 117.001Z" fill="#E9EAEB" mask="url(#path-11-inside-6_6158_600)"/>
<mask id="path-13-inside-7_6158_600" fill="white">
<path d="M320.771 234L160.385 234L160.385 117.001L320.771 117.001L320.771 234Z"/>
</mask>
<path d="M320.771 234L160.385 234L160.385 117.001L320.771 117.001L320.771 234Z" fill="white" fill-opacity="0.15"/>
<path d="M160.385 117.001L160.385 115.865L159.249 115.865L159.249 117.001L160.385 117.001ZM160.385 234L161.521 234L161.521 117.001L160.385 117.001L159.249 117.001L159.249 234L160.385 234ZM160.385 117.001L160.385 118.136L320.771 118.136L320.771 117.001L320.771 115.865L160.385 115.865L160.385 117.001Z" fill="#E9EAEB" mask="url(#path-13-inside-7_6158_600)"/>
<mask id="path-15-inside-8_6158_600" fill="white">
<path d="M160.386 234L0.000228882 234L0.000233996 117.001L160.386 117.001L160.386 234Z"/>
</mask>
<path d="M160.386 234L0.000228882 234L0.000233996 117.001L160.386 117.001L160.386 234Z" fill="white" fill-opacity="0.15"/>
<path d="M0.000233996 117.001L0.000234046 115.865L-1.13534 115.865L-1.13534 117.001L0.000233996 117.001ZM0.000228882 234L1.1358 234L1.13581 117.001L0.000233996 117.001L-1.13534 117.001L-1.13535 234L0.000228882 234ZM0.000233996 117.001L0.000233946 118.136L160.386 118.136L160.386 117.001L160.386 115.865L0.000234046 115.865L0.000233996 117.001Z" fill="#E9EAEB" mask="url(#path-15-inside-8_6158_600)"/>
<mask id="path-17-inside-9_6158_600" fill="white">
<path d="M640 117L479.614 117L479.614 0.000139358L640 0.000152588L640 117Z"/>
</mask>
<path d="M640 117L479.614 117L479.614 0.000139358L640 0.000152588L640 117Z" fill="white" fill-opacity="0.4"/>
<path d="M640 117L640 118.135L641.136 118.135L641.136 117L640 117ZM479.614 117L478.479 117L478.479 118.135L479.614 118.135L479.614 117ZM479.614 0.000139358L479.614 -1.13543L478.479 -1.13544L478.479 0.000139265L479.614 0.000139358ZM640 0.000152588L641.136 0.000152682L641.136 -1.13542L640 -1.13542L640 0.000152588ZM640 117L640 115.864L479.614 115.864L479.614 117L479.614 118.135L640 118.135L640 117ZM479.614 117L480.75 117L480.75 0.000139452L479.614 0.000139358L478.479 0.000139265L478.479 117L479.614 117ZM479.614 0.000139358L479.614 1.13571L640 1.13573L640 0.000152588L640 -1.13542L479.614 -1.13543L479.614 0.000139358ZM640 0.000152588L638.864 0.000152494L638.864 117L640 117L641.136 117L641.136 0.000152682L640 0.000152588Z" fill="#E9EAEB" mask="url(#path-17-inside-9_6158_600)"/>
<mask id="path-19-inside-10_6158_600" fill="white">
<path d="M479.614 117L319.229 117L319.229 0.000383499L479.614 0.000396729L479.614 117Z"/>
</mask>
<path d="M479.614 117L319.229 117L319.229 0.000383499L479.614 0.000396729L479.614 117Z" fill="white" fill-opacity="0.15"/>
<path d="M319.229 0.000383499L319.229 -1.13519L318.093 -1.13519L318.093 0.000383405L319.229 0.000383499ZM319.229 117L320.364 117L320.364 0.000383593L319.229 0.000383499L318.093 0.000383405L318.093 117L319.229 117ZM319.229 0.000383499L319.229 1.13596L479.614 1.13597L479.614 0.000396729L479.614 -1.13518L319.229 -1.13519L319.229 0.000383499Z" fill="#E9EAEB" mask="url(#path-19-inside-10_6158_600)"/>
<mask id="path-21-inside-11_6158_600" fill="white">
<path d="M320.771 117.001L160.385 117.001L160.385 0.00111592L320.771 0.00112915L320.771 117.001Z"/>
</mask>
<path d="M320.771 117.001L160.385 117.001L160.385 0.00111592L320.771 0.00112915L320.771 117.001Z" fill="white" fill-opacity="0.15"/>
<path d="M160.385 0.00111592L160.385 -1.13446L159.249 -1.13446L159.249 0.00111583L160.385 0.00111592ZM160.385 117.001L161.521 117.001L161.521 0.00111601L160.385 0.00111592L159.249 0.00111583L159.249 117.001L160.385 117.001ZM160.385 0.00111592L160.385 1.13669L320.771 1.1367L320.771 0.00112915L320.771 -1.13445L160.385 -1.13446L160.385 0.00111592Z" fill="#E9EAEB" mask="url(#path-21-inside-11_6158_600)"/>
<mask id="path-23-inside-12_6158_600" fill="white">
<path d="M160.386 117L0.000228882 117L0.000233996 0.000397347L160.386 0.000404358L160.386 117Z"/>
</mask>
<path d="M160.386 117L0.000228882 117L0.000233996 0.000397347L160.386 0.000404358L160.386 117Z" fill="white" fill-opacity="0.4"/>
<path d="M0.000233996 0.000397347L0.000234046 -1.13518L-1.13534 -1.13518L-1.13534 0.000397298L0.000233996 0.000397347ZM0.000228882 117L1.1358 117L1.13581 0.000397397L0.000233996 0.000397347L-1.13534 0.000397298L-1.13535 117L0.000228882 117ZM0.000233996 0.000397347L0.000233946 1.13597L160.386 1.13598L160.386 0.000404358L160.386 -1.13517L0.000234046 -1.13518L0.000233996 0.000397347Z" fill="#E9EAEB" mask="url(#path-23-inside-12_6158_600)"/>
</g>
<g opacity="0.6">
<mask id="path-25-inside-13_6158_600" fill="white">
<path d="M1280 350.998L1119.61 350.998L1119.61 233.998L1280 233.998L1280 350.998Z"/>
</mask>
<path d="M1280 350.998L1119.61 350.998L1119.61 233.998L1280 233.998L1280 350.998Z" fill="white" fill-opacity="0.15"/>
<path d="M1280 350.998L1280 352.134L1281.13 352.134L1281.13 350.998L1280 350.998ZM1119.61 350.998L1118.48 350.998L1118.48 352.134L1119.61 352.134L1119.61 350.998ZM1119.61 233.998L1119.61 232.863L1118.48 232.863L1118.48 233.998L1119.61 233.998ZM1280 233.998L1281.13 233.998L1281.13 232.863L1280 232.863L1280 233.998ZM1280 350.998L1280 349.863L1119.61 349.863L1119.61 350.998L1119.61 352.134L1280 352.134L1280 350.998ZM1119.61 350.998L1120.75 350.998L1120.75 233.998L1119.61 233.998L1118.48 233.998L1118.48 350.998L1119.61 350.998ZM1119.61 233.998L1119.61 235.134L1280 235.134L1280 233.998L1280 232.863L1119.61 232.863L1119.61 233.998ZM1280 233.998L1278.86 233.998L1278.86 350.998L1280 350.998L1281.13 350.998L1281.13 233.998L1280 233.998Z" fill="#E9EAEB" mask="url(#path-25-inside-13_6158_600)"/>
<mask id="path-27-inside-14_6158_600" fill="white">
<path d="M1119.61 350.999L959.228 350.999L959.228 233.999L1119.61 233.999L1119.61 350.999Z"/>
</mask>
<path d="M1119.61 350.999L959.228 350.999L959.228 233.999L1119.61 233.999L1119.61 350.999Z" fill="white" fill-opacity="0.15"/>
<path d="M1119.61 350.999L1119.61 352.134L1120.75 352.134L1120.75 350.999L1119.61 350.999ZM959.228 350.999L958.093 350.999L958.093 352.134L959.228 352.134L959.228 350.999ZM959.228 233.999L959.228 232.863L958.093 232.863L958.093 233.999L959.228 233.999ZM1119.61 233.999L1120.75 233.999L1120.75 232.863L1119.61 232.863L1119.61 233.999ZM1119.61 350.999L1119.61 349.863L959.228 349.863L959.228 350.999L959.228 352.134L1119.61 352.134L1119.61 350.999ZM959.228 350.999L960.364 350.999L960.364 233.999L959.228 233.999L958.093 233.999L958.093 350.999L959.228 350.999ZM959.228 233.999L959.228 235.135L1119.61 235.135L1119.61 233.999L1119.61 232.863L959.228 232.863L959.228 233.999ZM1119.61 233.999L1118.48 233.999L1118.48 350.999L1119.61 350.999L1120.75 350.999L1120.75 233.999L1119.61 233.999Z" fill="#E9EAEB" mask="url(#path-27-inside-14_6158_600)"/>
<mask id="path-29-inside-15_6158_600" fill="white">
<path d="M960.771 350.999L800.385 350.999L800.385 234L960.771 234L960.771 350.999Z"/>
</mask>
<path d="M960.771 350.999L800.385 350.999L800.385 234L960.771 234L960.771 350.999Z" fill="white" fill-opacity="0.15"/>
<path d="M960.771 350.999L960.771 352.135L961.907 352.135L961.907 350.999L960.771 350.999ZM800.385 350.999L799.25 350.999L799.25 352.135L800.385 352.135L800.385 350.999ZM800.385 234L800.385 232.864L799.25 232.864L799.25 234L800.385 234ZM960.771 234L961.907 234L961.907 232.864L960.771 232.864L960.771 234ZM960.771 350.999L960.771 349.864L800.385 349.864L800.385 350.999L800.385 352.135L960.771 352.135L960.771 350.999ZM800.385 350.999L801.521 350.999L801.521 234L800.385 234L799.25 234L799.25 350.999L800.385 350.999ZM800.385 234L800.385 235.135L960.771 235.135L960.771 234L960.771 232.864L800.385 232.864L800.385 234ZM960.771 234L959.635 234L959.635 350.999L960.771 350.999L961.907 350.999L961.907 234L960.771 234Z" fill="#E9EAEB" mask="url(#path-29-inside-15_6158_600)"/>
<mask id="path-31-inside-16_6158_600" fill="white">
<path d="M800.385 351L640 351L640 234L800.385 234L800.385 351Z"/>
</mask>
<path d="M800.385 351L640 351L640 234L800.385 234L800.385 351Z" fill="white" fill-opacity="0.4"/>
<path d="M800.385 351L800.385 352.135L801.521 352.135L801.521 351L800.385 351ZM640 351L638.864 351L638.864 352.135L640 352.135L640 351ZM640 234L640 232.865L638.864 232.865L638.864 234L640 234ZM800.385 234L801.521 234L801.521 232.865L800.385 232.865L800.385 234ZM800.385 351L800.385 349.864L640 349.864L640 351L640 352.135L800.385 352.135L800.385 351ZM640 351L641.135 351L641.135 234L640 234L638.864 234L638.864 351L640 351ZM640 234L640 235.136L800.385 235.136L800.385 234L800.385 232.865L640 232.865L640 234ZM800.385 234L799.25 234L799.25 351L800.385 351L801.521 351L801.521 234L800.385 234Z" fill="#E9EAEB" mask="url(#path-31-inside-16_6158_600)"/>
<mask id="path-33-inside-17_6158_600" fill="white">
<path d="M1280 234L1119.61 233.999L1119.61 117L1280 117L1280 234Z"/>
</mask>
<path d="M1280 234L1119.61 233.999L1119.61 117L1280 117L1280 234Z" fill="white" fill-opacity="0.15"/>
<path d="M1280 234L1280 235.135L1281.14 235.135L1281.14 234L1280 234ZM1119.61 233.999L1118.48 233.999L1118.48 235.135L1119.61 235.135L1119.61 233.999ZM1119.61 117L1119.61 115.864L1118.48 115.864L1118.48 117L1119.61 117ZM1280 117L1281.14 117L1281.14 115.864L1280 115.864L1280 117ZM1280 234L1280 232.864L1119.61 232.864L1119.61 233.999L1119.61 235.135L1280 235.135L1280 234ZM1119.61 233.999L1120.75 233.999L1120.75 117L1119.61 117L1118.48 117L1118.48 233.999L1119.61 233.999ZM1119.61 117L1119.61 118.135L1280 118.135L1280 117L1280 115.864L1119.61 115.864L1119.61 117ZM1280 117L1278.86 117L1278.86 234L1280 234L1281.14 234L1281.14 117L1280 117Z" fill="#E9EAEB" mask="url(#path-33-inside-17_6158_600)"/>
<mask id="path-35-inside-18_6158_600" fill="white">
<path d="M1119.61 234L959.228 234L959.228 117L1119.61 117L1119.61 234Z"/>
</mask>
<path d="M1119.61 234L959.228 234L959.228 117L1119.61 117L1119.61 234Z" fill="white" fill-opacity="0.4"/>
<path d="M959.228 117L959.228 115.865L958.093 115.865L958.093 117L959.228 117ZM959.228 234L960.364 234L960.364 117L959.228 117L958.093 117L958.093 234L959.228 234ZM959.228 117L959.228 118.136L1119.61 118.136L1119.61 117L1119.61 115.865L959.228 115.865L959.228 117Z" fill="#E9EAEB" mask="url(#path-35-inside-18_6158_600)"/>
<mask id="path-37-inside-19_6158_600" fill="white">
<path d="M960.771 234L800.385 234L800.385 117L960.771 117L960.771 234Z"/>
</mask>
<path d="M960.771 234L800.385 234L800.385 117L960.771 117L960.771 234Z" fill="white" fill-opacity="0.15"/>
<path d="M800.385 117L800.385 115.865L799.25 115.865L799.25 117L800.385 117ZM800.385 234L801.521 234L801.521 117L800.385 117L799.25 117L799.25 234L800.385 234ZM800.385 117L800.385 118.136L960.771 118.136L960.771 117L960.771 115.865L800.385 115.865L800.385 117Z" fill="#E9EAEB" mask="url(#path-37-inside-19_6158_600)"/>
<mask id="path-39-inside-20_6158_600" fill="white">
<path d="M800.385 234L640 234L640 117L800.385 117L800.385 234Z"/>
</mask>
<path d="M800.385 234L640 234L640 117L800.385 117L800.385 234Z" fill="white" fill-opacity="0.15"/>
<path d="M640 117L640 115.865L638.864 115.865L638.864 117L640 117ZM640 234L641.135 234L641.135 117L640 117L638.864 117L638.864 234L640 234ZM640 117L640 118.136L800.385 118.136L800.385 117L800.385 115.865L640 115.865L640 117Z" fill="#E9EAEB" mask="url(#path-39-inside-20_6158_600)"/>
<mask id="path-41-inside-21_6158_600" fill="white">
<path d="M1280 117L1119.61 117L1119.61 -5.13765e-05L1280 -3.8147e-05L1280 117Z"/>
</mask>
<path d="M1280 117L1119.61 117L1119.61 -5.13765e-05L1280 -3.8147e-05L1280 117Z" fill="white" fill-opacity="0.4"/>
<path d="M1280 117L1280 118.135L1281.14 118.135L1281.14 117L1280 117ZM1119.61 117L1118.48 117L1118.48 118.135L1119.61 118.135L1119.61 117ZM1119.61 -5.13765e-05L1119.61 -1.13563L1118.48 -1.13563L1118.48 -5.14701e-05L1119.61 -5.13765e-05ZM1280 -3.8147e-05L1281.14 -3.80533e-05L1281.14 -1.13561L1280 -1.13561L1280 -3.8147e-05ZM1280 117L1280 115.864L1119.61 115.864L1119.61 117L1119.61 118.135L1280 118.135L1280 117ZM1119.61 117L1120.75 117L1120.75 -5.12828e-05L1119.61 -5.13765e-05L1118.48 -5.14701e-05L1118.48 117L1119.61 117ZM1119.61 -5.13765e-05L1119.61 1.13552L1280 1.13554L1280 -3.8147e-05L1280 -1.13561L1119.61 -1.13563L1119.61 -5.13765e-05ZM1280 -3.8147e-05L1278.86 -3.82406e-05L1278.86 117L1280 117L1281.14 117L1281.14 -3.80533e-05L1280 -3.8147e-05Z" fill="#E9EAEB" mask="url(#path-41-inside-21_6158_600)"/>
<mask id="path-43-inside-22_6158_600" fill="white">
<path d="M1119.61 117L959.228 117L959.228 0.000558975L1119.61 0.000572205L1119.61 117Z"/>
</mask>
<path d="M1119.61 117L959.228 117L959.228 0.000558975L1119.61 0.000572205L1119.61 117Z" fill="white" fill-opacity="0.15"/>
<path d="M959.228 0.000558975L959.228 -1.13502L958.093 -1.13502L958.093 0.000558881L959.228 0.000558975ZM959.228 117L960.364 117L960.364 0.000559069L959.228 0.000558975L958.093 0.000558881L958.093 117L959.228 117ZM959.228 0.000558975L959.228 1.13613L1119.61 1.13615L1119.61 0.000572205L1119.61 -1.135L959.228 -1.13502L959.228 0.000558975Z" fill="#E9EAEB" mask="url(#path-43-inside-22_6158_600)"/>
<mask id="path-45-inside-23_6158_600" fill="white">
<path d="M960.771 117L800.385 117L800.385 0.000558975L960.771 0.000572205L960.771 117Z"/>
</mask>
<path d="M960.771 117L800.385 117L800.385 0.000558975L960.771 0.000572205L960.771 117Z" fill="white" fill-opacity="0.15"/>
<path d="M800.385 0.000558975L800.385 -1.13502L799.25 -1.13502L799.25 0.000558881L800.385 0.000558975ZM800.385 117L801.521 117L801.521 0.000559069L800.385 0.000558975L799.25 0.000558881L799.25 117L800.385 117ZM800.385 0.000558975L800.385 1.13613L960.771 1.13615L960.771 0.000572205L960.771 -1.135L800.385 -1.13502L800.385 0.000558975Z" fill="#E9EAEB" mask="url(#path-45-inside-23_6158_600)"/>
<mask id="path-47-inside-24_6158_600" fill="white">
<path d="M800.386 117L640.001 117L640.001 -4.51576e-05L800.386 -3.8147e-05L800.386 117Z"/>
</mask>
<path d="M800.386 117L640.001 117L640.001 -4.51576e-05L800.386 -3.8147e-05L800.386 117Z" fill="white" fill-opacity="0.4"/>
<path d="M640.001 -4.51576e-05L640.001 -1.13562L638.865 -1.13562L638.865 -4.52073e-05L640.001 -4.51576e-05ZM640.001 117L641.136 117L641.136 -4.5108e-05L640.001 -4.51576e-05L638.865 -4.52073e-05L638.865 117L640.001 117ZM640.001 -4.51576e-05L640.001 1.13553L800.386 1.13554L800.386 -3.8147e-05L800.386 -1.13561L640.001 -1.13562L640.001 -4.51576e-05Z" fill="#E9EAEB" mask="url(#path-47-inside-24_6158_600)"/>
</g>
</g>
</svg>
