<svg width="50" height="52" viewBox="0 0 50 52" fill="none" xmlns="http://www.w3.org/2000/svg">
<rect width="50" height="52" rx="16" fill="white"/>
<rect width="50" height="52" rx="16" fill="url(#paint0_linear_6337_1137)"/>
<g clip-path="url(#clip0_6337_1137)">
<path d="M33.6072 26.7616C33.6077 26.7608 33.6077 26.7608 33.6072 26.7616C34.6241 23.7484 33.6887 20.3285 31.2807 18.2512C29.4379 16.663 27.0291 15.9813 24.6682 16.3803C22.3069 16.7803 20.2672 18.1972 19.0717 20.2679C18.2487 21.6934 17.8896 23.3093 18.0323 24.9402C18.1882 26.7161 17.8042 28.4631 16.9197 29.9951C16.7818 30.2342 16.8637 30.5401 17.1028 30.6781L24.897 35.1781C25.136 35.3161 25.442 35.2342 25.58 34.9951C26.4365 33.5116 27.7987 32.2843 29.5196 31.4476C31.4527 30.5072 32.9052 28.8436 33.6072 26.7616ZM22.5645 39.6662L14.3831 34.9427C14.1072 34.9266 13.8706 35.1364 13.8536 35.4118L13.7933 36.4104C13.7371 37.3617 14.2139 38.2478 15.0392 38.7243L18.9606 40.9883C19.7859 41.4648 20.7926 41.4352 21.588 40.9095L22.4226 40.3579C22.6521 40.2064 22.7169 39.8962 22.5645 39.6662Z" fill="white"/>
<path d="M29.0981 24.9019C28.1429 24.3504 26.9176 24.6787 26.3661 25.6339L25.8661 26.4999L24.134 25.4999L24.634 24.6339C25.1855 23.6787 24.8572 22.4534 23.902 21.9019C22.9467 21.3504 21.7214 21.6787 21.1699 22.6339C20.6184 23.5891 20.9467 24.8145 21.902 25.366L22.768 25.866L19.518 31.4951C19.38 31.7341 19.462 32.0401 19.701 32.1781C19.94 32.3161 20.246 32.2341 20.384 31.9951L23.634 26.366L27.0981 28.366C28.0534 28.9175 29.2787 28.5891 29.8302 27.6339C30.3817 26.6787 30.0534 25.4534 29.0981 24.9019ZM22.0359 23.1339C22.3114 22.6567 22.9248 22.4924 23.402 22.7679C23.8792 23.0434 24.0435 23.6567 23.768 24.1339C23.4925 24.6111 22.8792 24.7754 22.402 24.4999C21.9248 24.2244 21.7604 23.6111 22.0359 23.1339ZM27.5981 27.4999C27.1201 27.2239 26.9566 26.6111 27.2321 26.1339C27.5076 25.6567 28.1201 25.4919 28.5981 25.7679C29.0762 26.0439 29.2397 26.6567 28.9642 27.1339C28.6887 27.6111 28.0762 27.7759 27.5981 27.4999Z" fill="#F28E46"/>
<path d="M25.2992 28.4821C25.0602 28.3441 24.7542 28.426 24.6162 28.6651L22.1162 32.9952C21.9782 33.2342 22.0602 33.5402 22.2992 33.6782C22.5382 33.8162 22.8442 33.7342 22.9822 33.4952L25.4822 29.1651C25.6202 28.926 25.5382 28.6201 25.2992 28.4821Z" fill="#F28E46"/>
<path d="M35.7095 18.9512C35.6359 18.9087 35.5719 18.8475 35.5265 18.7682C35.3885 18.5291 35.4705 18.2231 35.7095 18.0852L37.4415 17.0852C37.6805 16.9472 37.986 17.0301 38.1245 17.2682C38.2625 17.5072 38.1805 17.8132 37.9415 17.9512L36.2095 18.9512C36.0498 19.0437 35.8584 19.0372 35.7095 18.9512ZM12.2506 24.7011C12.1008 24.6146 11.9998 24.4535 11.9998 24.2676C11.9998 23.9916 12.2238 23.7676 12.4998 23.7676L14.4997 23.7676C14.7753 23.7662 14.9993 23.9902 14.9997 24.2675C14.9997 24.5435 14.7757 24.7675 14.4997 24.7675L12.4998 24.7676C12.4092 24.7684 12.3242 24.7436 12.2506 24.7011ZM37.2501 24.7008C37.1011 24.6148 36.9998 24.4523 37.0001 24.2678C36.9992 23.9913 37.2232 23.7673 37.5001 23.7678L39.5 23.7677C39.776 23.7677 40.0005 23.9909 40 24.2677C40.0009 24.5442 39.7769 24.7682 39.5 24.7677L37.5001 24.7678C37.4087 24.7681 37.3237 24.7433 37.2501 24.7008ZM15.791 18.9509L14.059 17.9509C13.82 17.8129 13.738 17.5069 13.876 17.2679C14.014 17.0289 14.32 16.9469 14.559 17.0849L16.291 18.0849C16.5301 18.2229 16.6121 18.5289 16.4741 18.7679C16.3361 19.0069 16.0301 19.0889 15.791 18.9509ZM37.4417 31.4509L35.7096 30.4509C35.4706 30.3129 35.3886 30.0069 35.5266 29.7679C35.6646 29.5289 35.9706 29.4469 36.2096 29.5849L37.9417 30.5849C38.1807 30.7229 38.2627 31.0289 38.1247 31.2679C37.9867 31.5069 37.6807 31.5889 37.4417 31.4509ZM19.9997 14.7413C19.9261 14.6988 19.8621 14.6376 19.8167 14.5583L18.8168 12.8262C18.6788 12.5872 18.7608 12.2812 18.9998 12.1432C19.2402 12.0049 19.5439 12.0867 19.6828 12.3262L20.6827 14.0583C20.8216 14.2978 20.7396 14.6038 20.5006 14.7418C20.3395 14.8347 20.1495 14.8278 19.9997 14.7413ZM32.5 36.3921C32.4264 36.3496 32.3624 36.2884 32.317 36.2091L31.3171 34.477C31.1791 34.238 31.2611 33.932 31.5001 33.794C31.7391 33.6561 32.0446 33.7389 32.1831 33.9771L33.183 35.7091C33.321 35.9481 33.239 36.2541 33 36.3921C32.8404 36.4847 32.649 36.4781 32.5 36.3921ZM25.7502 13.2012C25.6004 13.1147 25.4994 12.9536 25.4993 12.7677L25.4993 10.7677C25.5007 10.4914 25.7242 10.2682 26.0007 10.2674C26.2758 10.2668 26.5003 10.49 26.5006 10.7673L26.5007 12.7673C26.5007 13.0433 26.2767 13.2673 26.0007 13.2673C25.9093 13.2676 25.8238 13.2437 25.7502 13.2012ZM31.5003 14.7416C31.2613 14.6036 31.1793 14.2976 31.3173 14.0586L32.3173 12.3266C32.4553 12.0875 32.7613 12.0056 33.0003 12.1436C33.2394 12.2816 33.3213 12.5875 33.1833 12.8266L32.1833 14.5586C32.0453 14.7976 31.7394 14.8796 31.5003 14.7416Z" fill="white"/>
<path d="M13.5537 33.8253C13.1402 34.5415 13.3865 35.4608 14.1027 35.8743L21.897 40.3743C22.6132 40.7878 23.5325 40.5415 23.946 39.8253C24.139 39.491 24.1831 39.1146 24.1083 38.7642L14.3915 33.1542C14.0506 33.2646 13.7467 33.491 13.5537 33.8253Z" fill="#F28E46"/>
<path d="M25.1083 37.0322L15.3915 31.4222C15.0506 31.5325 14.7467 31.7589 14.5537 32.0932C14.3607 32.4275 14.3166 32.8039 14.3915 33.1542L24.1083 38.7642C24.4491 38.6539 24.753 38.4275 24.946 38.0932C25.139 37.7589 25.1831 37.3825 25.1083 37.0322Z" fill="#F28E46"/>
<path d="M25.946 36.3612C26.3595 35.645 26.1132 34.7256 25.397 34.3121L17.6027 29.8121C16.8865 29.3986 15.9672 29.645 15.5537 30.3612C15.3607 30.6955 15.3166 31.0718 15.3915 31.4222L25.1083 37.0322C25.4491 36.9218 25.753 36.6955 25.946 36.3612Z" fill="#F28E46"/>
</g>
<defs>
<linearGradient id="paint0_linear_6337_1137" x1="-0.410151" y1="0.692572" x2="50.4512" y2="50.1572" gradientUnits="userSpaceOnUse">
<stop stop-color="#F9B513"/>
<stop offset="1" stop-color="#EA601E"/>
</linearGradient>
<clipPath id="clip0_6337_1137">
<rect width="32" height="32" fill="white" transform="translate(19.1436 4.14355) rotate(30)"/>
</clipPath>
</defs>
</svg>
