<svg width="48" height="48" viewBox="0 0 48 48" fill="none" xmlns="http://www.w3.org/2000/svg">
<rect x="0.5" y="0.5" width="47" height="47" rx="15.5" fill="white"/>
<rect x="0.5" y="0.5" width="47" height="47" rx="15.5" stroke="#E3E3E3"/>
<path d="M32.84 16.7148H29.2V15.6548C29.2 14.2649 28.0701 13.135 26.6899 13.135H21.3101C19.9199 13.135 18.79 14.2649 18.79 15.6548V16.7148H15.1599C13.4199 16.7148 12 18.135 12 19.875V31.7051C12 33.4448 13.4199 34.865 15.1599 34.865H32.84C34.5801 34.865 36 33.4448 36 31.7051V19.875C36 18.135 34.5801 16.7148 32.84 16.7148ZM20.79 15.6548C20.79 15.365 21.02 15.135 21.3101 15.135H26.6899C26.97 15.135 27.2 15.365 27.2 15.6548V16.7148H20.79V15.6548ZM24 31.9949C20.5701 31.9949 17.79 29.2148 17.79 25.7849C17.79 22.355 20.5701 19.575 24 19.575C27.4299 19.575 30.21 22.355 30.21 25.7849C30.21 29.2148 27.4299 31.9949 24 31.9949Z" fill="#F28E46"/>
<path d="M26.6401 23.145C26.2501 22.7549 25.6201 22.7549 25.2301 23.145L24.0001 24.375L22.7701 23.145C22.3801 22.7549 21.7501 22.7549 21.3601 23.145C20.9601 23.5349 20.9601 24.165 21.3601 24.5549L22.5901 25.7949L21.3601 27.0249C20.9601 27.415 20.9601 28.0449 21.3601 28.4351C21.7108 28.804 22.3652 28.8399 22.7701 28.4351L24.0001 27.2051L25.2301 28.4351C25.6351 28.8401 26.2893 28.8041 26.6401 28.4351C27.0401 28.0449 27.0401 27.415 26.6401 27.0249L25.41 25.7949L26.6401 24.5549C27.0401 24.165 27.0401 23.5349 26.6401 23.145Z" fill="#F28E46"/>
</svg>
