<svg width="21" height="14" viewBox="0 0 21 14" fill="none" xmlns="http://www.w3.org/2000/svg">
<g clip-path="url(#clip0_6095_475)">
<path d="M21 4.70692H0V0.482767C0 0.282816 0.162134 0.120682 0.362085 0.120682H20.6379C20.8379 0.120682 21 0.282816 21 0.482767L21 4.70692Z" fill="#82AFFF"/>
<path d="M20.6379 13.8793H0.362085C0.162134 13.8793 0 13.7172 0 13.5172V9.29312H21V13.5172C21 13.7172 20.8378 13.8793 20.6379 13.8793Z" fill="#73AF00"/>
<path d="M21 4.70685H0V9.2928H21V4.70685Z" fill="#F5F5F5"/>
<path d="M21 4.29955H0V4.87138H21V4.29955Z" fill="#FF4B55"/>
<path d="M21 9.1283H0V9.70014H21V9.1283Z" fill="#FF4B55"/>
<path d="M4.65509 3.55763C3.91386 3.55763 3.31302 2.95823 3.31302 2.21966C3.31302 1.47838 3.91382 0.876275 4.65509 0.876275C4.65796 0.876275 4.66075 0.876275 4.66354 0.876316C4.70718 0.87689 4.72248 0.818935 4.68401 0.798305C4.45576 0.675955 4.19527 0.606721 3.91833 0.608731C3.03141 0.615047 2.31097 1.35 2.3204 2.23693C2.32967 3.1147 3.04728 3.82521 3.92994 3.82521C4.20306 3.82521 4.4599 3.7561 4.68532 3.63543C4.72367 3.61488 4.70816 3.55693 4.66469 3.55755C4.66141 3.55763 4.65825 3.55763 4.65509 3.55763Z" fill="#F5F5F5"/>
<path d="M5.70542 3.18765L5.64549 3.36738L5.45604 3.36882C5.43152 3.36898 5.42134 3.40032 5.44107 3.41488L5.59349 3.52743L5.53631 3.70806C5.52893 3.73144 5.55555 3.7508 5.57552 3.73652L5.72966 3.62636L5.88379 3.73652C5.90377 3.7508 5.93035 3.73144 5.923 3.70806L5.86583 3.52743L6.0182 3.41488C6.03793 3.40032 6.02776 3.36898 6.00323 3.36882L5.81378 3.36738L5.75386 3.18765C5.7461 3.1644 5.71321 3.1644 5.70542 3.18765Z" fill="#F5F5F5"/>
<path d="M7.04038 3.18765L6.98046 3.36738L6.791 3.36882C6.76648 3.36898 6.7563 3.40032 6.77603 3.41488L6.92841 3.52743L6.87123 3.70806C6.86385 3.73144 6.89047 3.7508 6.91044 3.73652L7.06458 3.62636L7.21871 3.73652C7.23869 3.7508 7.26527 3.73144 7.25793 3.70806L7.20075 3.52743L7.35312 3.41488C7.37285 3.40032 7.36268 3.36898 7.33815 3.36882L7.1487 3.36738L7.08878 3.18765C7.08103 3.1644 7.04809 3.1644 7.04038 3.18765Z" fill="#F5F5F5"/>
<path d="M8.37534 3.18765L8.31541 3.36738L8.12596 3.36882C8.10144 3.36898 8.09127 3.40032 8.11099 3.41488L8.26341 3.52743L8.20623 3.70806C8.19885 3.73144 8.22547 3.7508 8.24544 3.73652L8.39958 3.62636L8.55371 3.73652C8.57369 3.7508 8.60027 3.73144 8.59293 3.70806L8.53575 3.52743L8.68812 3.41488C8.70785 3.40032 8.69768 3.36898 8.67315 3.36882L8.4837 3.36738L8.42378 3.18765C8.41603 3.1644 8.38309 3.1644 8.37534 3.18765Z" fill="#F5F5F5"/>
<path d="M9.7103 3.18765L9.65038 3.36738L9.46093 3.36882C9.4364 3.36898 9.42623 3.40032 9.44595 3.41488L9.59833 3.52743L9.54115 3.70806C9.53377 3.73144 9.56039 3.7508 9.58036 3.73652L9.7345 3.62636L9.88864 3.73652C9.90861 3.7508 9.93519 3.73144 9.92785 3.70806L9.87067 3.52743L10.023 3.41488C10.0428 3.40032 10.0326 3.36898 10.0081 3.36882L9.81862 3.36738L9.7587 3.18765C9.75099 3.1644 9.71805 3.1644 9.7103 3.18765Z" fill="#F5F5F5"/>
<path d="M11.0453 3.18765L10.9853 3.36738L10.7959 3.36882C10.7714 3.36898 10.7612 3.40032 10.7809 3.41488L10.9333 3.52743L10.8762 3.70806C10.8688 3.73144 10.8954 3.7508 10.9154 3.73652L11.0695 3.62636L11.2236 3.73652C11.2436 3.7508 11.2702 3.73144 11.2628 3.70806L11.2057 3.52743L11.3581 3.41488C11.3778 3.40032 11.3676 3.36898 11.3431 3.36882L11.1537 3.36738L11.0937 3.18765C11.0859 3.1644 11.053 3.1644 11.0453 3.18765Z" fill="#F5F5F5"/>
<path d="M7.04038 1.94193L6.98046 2.12166L6.791 2.12309C6.76648 2.12326 6.7563 2.15459 6.77603 2.16915L6.92841 2.2817L6.87123 2.46233C6.86385 2.48571 6.89047 2.50507 6.91044 2.4908L7.06458 2.38063L7.21871 2.4908C7.23869 2.50507 7.26527 2.48571 7.25793 2.46233L7.20075 2.2817L7.35312 2.16915C7.37285 2.15459 7.36268 2.12326 7.33815 2.12309L7.1487 2.12166L7.08878 1.94193C7.08103 1.91859 7.04809 1.91859 7.04038 1.94193Z" fill="#F5F5F5"/>
<path d="M8.37534 1.94193L8.31541 2.12166L8.12596 2.12309C8.10144 2.12326 8.09127 2.15459 8.11099 2.16915L8.26341 2.2817L8.20623 2.46233C8.19885 2.48571 8.22547 2.50507 8.24544 2.4908L8.39958 2.38063L8.55371 2.4908C8.57369 2.50507 8.60027 2.48571 8.59293 2.46233L8.53575 2.2817L8.68812 2.16915C8.70785 2.15459 8.69768 2.12326 8.67315 2.12309L8.4837 2.12166L8.42378 1.94193C8.41603 1.91859 8.38309 1.91859 8.37534 1.94193Z" fill="#F5F5F5"/>
<path d="M9.7103 1.94193L9.65038 2.12166L9.46093 2.12309C9.4364 2.12326 9.42623 2.15459 9.44595 2.16915L9.59833 2.2817L9.54115 2.46233C9.53377 2.48571 9.56039 2.50507 9.58036 2.4908L9.7345 2.38063L9.88864 2.4908C9.90861 2.50507 9.93519 2.48571 9.92785 2.46233L9.87067 2.2817L10.023 2.16915C10.0428 2.15459 10.0326 2.12326 10.0081 2.12309L9.81862 2.12166L9.7587 1.94193C9.75099 1.91859 9.71805 1.91859 9.7103 1.94193Z" fill="#F5F5F5"/>
<path d="M11.0453 1.94193L10.9853 2.12166L10.7959 2.12309C10.7714 2.12326 10.7612 2.15459 10.7809 2.16915L10.9333 2.2817L10.8762 2.46233C10.8688 2.48571 10.8954 2.50507 10.9154 2.4908L11.0695 2.38063L11.2236 2.4908C11.2436 2.50507 11.2702 2.48571 11.2628 2.46233L11.2057 2.2817L11.3581 2.16915C11.3778 2.15459 11.3676 2.12326 11.3431 2.12309L11.1537 2.12166L11.0937 1.94193C11.0859 1.91859 11.053 1.91859 11.0453 1.94193Z" fill="#F5F5F5"/>
<path d="M8.37534 3.18765L8.31541 3.36738L8.12596 3.36882C8.10144 3.36898 8.09127 3.40032 8.11099 3.41488L8.26341 3.52743L8.20623 3.70806C8.19885 3.73144 8.22547 3.7508 8.24544 3.73652L8.39958 3.62636L8.55371 3.73652C8.57369 3.7508 8.60027 3.73144 8.59293 3.70806L8.53575 3.52743L8.68812 3.41488C8.70785 3.40032 8.69768 3.36898 8.67315 3.36882L8.4837 3.36738L8.42378 3.18765C8.41603 3.1644 8.38309 3.1644 8.37534 3.18765Z" fill="#F5F5F5"/>
<path d="M8.37534 0.696153L8.31541 0.875883L8.12596 0.877318C8.10144 0.877482 8.09127 0.908818 8.11099 0.923379L8.26341 1.03593L8.20623 1.21656C8.19885 1.23994 8.22547 1.2593 8.24544 1.24502L8.39958 1.13485L8.55371 1.24502C8.57369 1.2593 8.60027 1.23994 8.59293 1.21656L8.53575 1.03593L8.68812 0.923379C8.70785 0.908818 8.69768 0.877482 8.67315 0.877318L8.4837 0.875883L8.42378 0.696153C8.41603 0.672897 8.38309 0.672897 8.37534 0.696153Z" fill="#F5F5F5"/>
<path d="M9.7103 3.18765L9.65038 3.36738L9.46093 3.36882C9.4364 3.36898 9.42623 3.40032 9.44595 3.41488L9.59833 3.52743L9.54115 3.70806C9.53377 3.73144 9.56039 3.7508 9.58036 3.73652L9.7345 3.62636L9.88864 3.73652C9.90861 3.7508 9.93519 3.73144 9.92785 3.70806L9.87067 3.52743L10.023 3.41488C10.0428 3.40032 10.0326 3.36898 10.0081 3.36882L9.81862 3.36738L9.7587 3.18765C9.75099 3.1644 9.71805 3.1644 9.7103 3.18765Z" fill="#F5F5F5"/>
<path d="M11.0453 3.18765L10.9853 3.36738L10.7959 3.36882C10.7714 3.36898 10.7612 3.40032 10.7809 3.41488L10.9333 3.52743L10.8762 3.70806C10.8688 3.73144 10.8954 3.7508 10.9154 3.73652L11.0695 3.62636L11.2236 3.73652C11.2436 3.7508 11.2702 3.73144 11.2628 3.70806L11.2057 3.52743L11.3581 3.41488C11.3778 3.40032 11.3676 3.36898 11.3431 3.36882L11.1537 3.36738L11.0937 3.18765C11.0859 3.1644 11.053 3.1644 11.0453 3.18765Z" fill="#F5F5F5"/>
<path d="M9.7103 0.696153L9.65038 0.875883L9.46093 0.877318C9.4364 0.877482 9.42623 0.908818 9.44595 0.923379L9.59833 1.03593L9.54115 1.21656C9.53377 1.23994 9.56039 1.2593 9.58036 1.24502L9.7345 1.13485L9.88864 1.24502C9.90861 1.2593 9.93519 1.23994 9.92785 1.21656L9.87067 1.03593L10.023 0.923379C10.0428 0.908818 10.0326 0.877482 10.0081 0.877318L9.81862 0.875883L9.7587 0.696153C9.75099 0.672897 9.71805 0.672897 9.7103 0.696153Z" fill="#F5F5F5"/>
<path d="M11.0453 0.696153L10.9853 0.875883L10.7959 0.877318C10.7714 0.877482 10.7612 0.908818 10.7809 0.923379L10.9333 1.03593L10.8762 1.21656C10.8688 1.23994 10.8954 1.2593 10.9154 1.24502L11.0695 1.13485L11.2236 1.24502C11.2436 1.2593 11.2702 1.23994 11.2628 1.21656L11.2057 1.03593L11.3581 0.923379C11.3778 0.908818 11.3676 0.877482 11.3431 0.877318L11.1537 0.875883L11.0937 0.696153C11.0859 0.672897 11.053 0.672897 11.0453 0.696153Z" fill="#F5F5F5"/>
</g>
<defs>
<clipPath id="clip0_6095_475">
<rect width="21" height="14" rx="2" fill="white"/>
</clipPath>
</defs>
</svg>
