<svg width="131" height="38" viewBox="0 0 131 38" fill="none" xmlns="http://www.w3.org/2000/svg">
<path d="M92.8424 4.45459V13.9198H98.4102V16.1469H90.3369V4.45459H92.8424Z" fill="white"/>
<path d="M58.7403 4.17595C62.3594 3.89756 65.7 6.26386 65.8392 10.1613C66.1176 15.8683 59.4363 18.6521 55.3997 15.3115C51.0846 11.6924 53.3117 4.59353 58.7403 4.17595ZM63.1945 10.4397C63.1945 8.35178 61.5242 6.54225 59.4363 6.54225C57.3484 6.54225 55.678 8.21258 55.678 10.4397C55.678 12.6668 57.3484 14.3371 59.4363 14.3371C61.5242 14.1979 63.1945 12.5276 63.1945 10.4397Z" fill="white"/>
<path d="M121.099 16.2859H118.315L115.949 12.5277L115.81 12.3885H113.722V12.5277C113.722 13.6412 113.861 15.0332 113.722 16.1467V16.2859H111.355V4.59363C111.355 4.59363 111.495 4.45443 111.495 4.59363C113.443 4.73282 115.81 4.31524 117.758 4.59363C121.517 5.1504 122.63 9.883 119.29 11.8317C119.15 11.8317 118.872 11.9709 118.733 12.1101C118.733 12.1101 118.733 12.1101 118.733 12.2493L121.099 16.2859ZM116.923 6.82073H113.583V9.883C113.583 9.883 113.583 9.883 113.583 10.0222C113.722 10.0222 113.722 10.0222 113.861 10.0222C114.696 10.0222 115.67 10.0222 116.506 10.0222C117.341 10.0222 118.176 9.74381 118.454 8.76945C118.733 7.79509 117.898 6.95993 116.923 6.82073Z" fill="white"/>
<path d="M98.6885 16.2861L101.751 4.45459H106.901L109.824 16.2861H107.319L106.623 13.6414H101.89L101.194 16.2861H98.6885ZM102.586 11.2751H106.205L105.091 6.96008C105.091 6.96008 103.978 6.96008 103.839 6.96008C103.839 6.96008 103.699 6.96008 103.699 7.09928L102.586 11.2751Z" fill="white"/>
<path d="M85.7435 9.18719V4.59378H88.1098V16.2861H85.7435V11.5535H80.7325V16.2861H78.3662V4.59378C78.3662 4.59378 78.3662 4.59378 78.3662 4.45459H80.7325V8.9088L85.7435 9.18719Z" fill="white"/>
<path d="M66.6738 12.5276H69.1793C69.4577 13.502 70.2929 14.198 71.2672 14.198C71.9632 14.198 73.3551 14.198 73.7727 13.3628C74.3295 12.2493 73.0768 11.8317 72.2416 11.5533C70.2929 10.8573 67.3698 10.7181 67.0914 8.07343C66.6738 3.89761 72.6592 2.92325 75.1647 5.42874C75.5823 5.84633 76.2782 6.95988 76.2782 7.65585V7.79504H73.9119C73.6335 7.37746 73.4943 7.09907 73.0768 6.82069C72.2416 6.26391 70.4321 6.26391 69.8753 7.23827C69.3185 8.21263 70.4321 8.7694 71.2672 9.04779C73.216 9.74376 76.2782 9.88296 76.5566 12.6668C76.835 16.8427 71.2672 17.6778 68.6225 15.7291C67.6482 15.0331 66.9522 13.7804 66.6738 12.5276Z" fill="white"/>
<path d="M44.5421 4.45459L47.1868 9.32639C47.326 9.46558 47.4652 9.32639 47.6044 9.18719C48.4396 7.93444 48.9964 6.5425 49.8315 5.28975C49.9707 5.01137 50.1099 4.73298 50.2491 4.59378H52.8938V4.73298L48.5788 12.1103V16.2861H46.2125V11.9711C44.8205 9.46558 43.2894 7.23847 42.0367 4.73298C42.0367 4.59378 41.8975 4.59378 41.8975 4.45459H44.5421Z" fill="white"/>
<path d="M64.7256 20.6006H67.9271L72.3813 28.813H72.5205L72.3813 27.5603V20.6006H74.8868V32.2929H71.8245L67.2311 23.9412C67.0919 23.9412 67.3703 25.194 67.3703 25.194V32.1537H65.004L64.7256 20.6006Z" fill="white"/>
<path d="M98.9678 20.6006L105.092 20.4614C109.129 20.7398 110.66 25.7508 106.763 27.8387C106.623 27.8387 106.345 27.9779 106.345 28.1171L108.851 32.2929H106.067C105.232 31.0402 104.536 29.6482 103.7 28.3955H101.473V32.1537H99.107L98.9678 20.6006ZM101.473 26.0292H104.675C105.51 26.0292 106.345 25.3332 106.345 24.4981C106.345 23.6629 105.649 22.9669 104.814 22.9669H101.473V26.0292Z" fill="white"/>
<path d="M56.7916 22.967V25.1941H61.6634C61.6634 25.1941 61.6634 25.1941 61.8026 25.1941V27.282H56.9308V29.7875H63.0553V32.1538H54.5645V20.4615C54.5645 20.4615 54.5645 20.4615 54.5645 20.3223H63.0553V22.5494L56.7916 22.967Z" fill="white"/>
<path d="M119.151 22.967H113.026V25.1941H117.898V27.282H113.026V29.7875H119.151V32.0146H110.66V20.3223C110.66 20.3223 110.66 20.3223 110.66 20.1831H119.151V22.967C119.151 22.8278 119.151 22.8278 119.151 22.967Z" fill="white"/>
<path d="M129.869 23.8024H127.363C127.224 23.6632 127.224 23.3848 126.946 23.2456C126.11 22.132 123.048 22.2712 123.187 23.9415C123.326 25.0551 125.832 25.3335 126.667 25.6119C128.477 26.1686 130.147 27.0038 130.008 29.2309C129.869 32.85 124.858 33.5459 122.352 32.0148C121.239 31.3188 120.403 30.0661 120.125 28.6741H120.264H122.63C122.63 28.6741 122.77 28.6741 122.77 28.8133C122.909 28.9525 122.909 29.2309 123.048 29.3701C123.744 30.4837 125.693 30.7621 126.806 30.2053C127.641 29.7877 127.641 28.6741 126.946 28.2566C125.136 27.143 121.099 27.4214 120.682 24.3591C120.264 20.6009 124.858 19.4873 127.502 20.8793C128.755 21.2969 129.59 22.4104 129.869 23.8024Z" fill="white"/>
<path d="M89.5021 20.4614V27.8387C89.5021 30.3442 92.982 31.0402 94.0955 28.9523C94.2347 28.8131 94.3739 28.2563 94.3739 28.1171V20.4614H96.7402C96.7402 20.4614 96.8794 20.6006 96.7402 20.6006C96.601 22.9669 96.8794 25.4724 96.7402 27.8387C96.601 30.6226 94.9307 32.4321 92.1468 32.5713C89.3629 32.7105 87.1358 31.0402 86.8574 28.1171V20.4614H86.9966H89.5021Z" fill="white"/>
<path d="M53.0334 20.4614L50.1104 32.1537V32.2929H45.0994H44.9602L42.0371 20.6006H44.5426L46.9089 29.9266C47.0481 29.9266 48.1616 29.9266 48.1616 29.9266L50.3888 20.7398C50.3888 20.7398 50.3888 20.6006 50.528 20.6006H50.6671L53.0334 20.4614Z" fill="white"/>
<path d="M82.2637 22.9669V32.2929H79.8974V22.9669H76.2783V22.8277V20.6006L76.4175 20.4614H86.1611V22.6885H82.2637V22.9669Z" fill="white"/>
<path d="M0 38V10.7179C0.417582 5.15018 4.8718 0.417582 10.4396 0H37.0256V27.6996C36.7473 33.1282 32.4322 37.7216 27.1429 38H0ZM19.2088 8.49084H7.0989V8.63004L13.3626 19.6264H19.4872C19.348 19.9048 19.2088 20.1832 19.0696 20.3223C18.2344 21.8535 17.3993 23.3846 16.4249 24.9158C16.4249 25.0549 16.2857 25.0549 16.2857 25.1941H10.3004C10.3004 25.1941 10.1612 25.1941 10.3004 25.3333L13.2234 30.6227H19.0696H19.2088L25.4725 19.7656L22.2711 14.1978H28.2564V14.0586C29.2308 12.5275 30.2051 10.7179 31.1795 9.04762C31.3187 8.90843 31.3187 8.76923 31.3187 8.63004H25.3333C25.3333 8.63004 25.1941 8.63004 25.1941 8.76923L22.1319 14.337L19.2088 8.49084Z" fill="url(#paint0_linear_6133_4007)"/>
<defs>
<linearGradient id="paint0_linear_6133_4007" x1="-0.303722" y1="0.50611" x2="36.8746" y2="37.1456" gradientUnits="userSpaceOnUse">
<stop stop-color="#F9B513"/>
<stop offset="1" stop-color="#EA601E"/>
</linearGradient>
</defs>
</svg>
