<svg width="25" height="24" viewBox="0 0 25 24" fill="none" xmlns="http://www.w3.org/2000/svg">
<path d="M22.25 6H2.75C1.92162 6 1.25 5.32838 1.25 4.5C1.25 3.67162 1.92162 3 2.75 3H22.25C23.0784 3 23.75 3.67162 23.75 4.5C23.75 5.32838 23.0784 6 22.25 6Z" fill="black"/>
<path d="M22.25 21H2.75C1.92162 21 1.25 20.3284 1.25 19.5C1.25 18.6716 1.92162 18 2.75 18H22.25C23.0784 18 23.75 18.6716 23.75 19.5C23.75 20.3284 23.0784 21 22.25 21Z" fill="black"/>
<path d="M22.25 13.5H2.75C1.92162 13.5 1.25 12.8284 1.25 12C1.25 11.1716 1.92162 10.5 2.75 10.5H22.25C23.0784 10.5 23.75 11.1716 23.75 12C23.75 12.8284 23.0784 13.5 22.25 13.5Z" fill="black"/>
</svg>
