<svg width="32" height="32" viewBox="0 0 32 32" fill="none" xmlns="http://www.w3.org/2000/svg">
<g clip-path="url(#clip0_6157_160)">
<rect width="32" height="32" rx="10" fill="white"/>
<rect width="32" height="32" rx="10" fill="url(#paint0_linear_6157_160)"/>
<g clip-path="url(#clip1_6157_160)">
<path d="M22.848 16.9636C22.8483 16.963 22.8483 16.963 22.848 16.9636C23.6106 14.7037 22.9091 12.1388 21.1031 10.5808C19.721 9.38968 17.9144 8.87836 16.1438 9.17765C14.3728 9.47759 12.843 10.5403 11.9463 12.0933C11.3291 13.1624 11.0598 14.3744 11.1668 15.5975C11.2837 16.9294 10.9958 18.2397 10.3324 19.3887C10.2289 19.568 10.2904 19.7975 10.4696 19.901L16.3153 23.276C16.4946 23.3795 16.7241 23.318 16.8276 23.1387C17.47 22.0261 18.4916 21.1056 19.7822 20.4781C21.2321 19.7728 22.3215 18.5251 22.848 16.9636ZM14.5659 26.642L8.42993 23.0994C8.223 23.0873 8.04555 23.2447 8.03281 23.4512L7.98752 24.2002C7.94537 24.9137 8.30298 25.5783 8.92197 25.9357L11.863 27.6337C12.482 27.991 13.237 27.9688 13.8336 27.5745L14.4595 27.1608C14.6317 27.0472 14.6802 26.8145 14.5659 26.642Z" fill="#FFBC8C"/>
<path d="M19.4657 15.5688C18.7493 15.1552 17.8303 15.4015 17.4166 16.1179L17.0416 16.7674L15.7426 16.0174L16.1176 15.3679C16.5312 14.6515 16.285 13.7325 15.5686 13.3188C14.8521 12.9052 13.9332 13.1515 13.5195 13.8679C13.1059 14.5843 13.3521 15.5033 14.0686 15.9169L14.7181 16.2919L12.2806 20.5138C12.1771 20.6931 12.2386 20.9226 12.4178 21.0261C12.5971 21.1296 12.8266 21.0681 12.9301 20.8888L15.3676 16.6669L17.9657 18.1669C18.6821 18.5805 19.6011 18.3343 20.0147 17.6179C20.4283 16.9015 20.1821 15.9825 19.4657 15.5688ZM14.1691 14.2429C14.3757 13.885 14.8357 13.7617 15.1936 13.9684C15.5515 14.175 15.6747 14.635 15.4681 14.9929C15.2615 15.3508 14.8015 15.474 14.4436 15.2674C14.0857 15.0608 13.9624 14.6008 14.1691 14.2429ZM18.3407 17.5174C17.9821 17.3104 17.8595 16.8508 18.0662 16.4929C18.2728 16.135 18.7321 16.0114 19.0907 16.2184C19.4492 16.4254 19.5718 16.885 19.3652 17.2429C19.1586 17.6008 18.6992 17.7244 18.3407 17.5174Z" fill="white"/>
<path d="M16.6168 18.2539C16.4375 18.1504 16.208 18.2119 16.1045 18.3912L14.2295 21.6388C14.126 21.818 14.1875 22.0475 14.3668 22.151C14.546 22.2545 14.7755 22.193 14.879 22.0138L16.754 18.7662C16.8575 18.5869 16.796 18.3574 16.6168 18.2539Z" fill="white"/>
<path d="M24.4249 11.1057C24.3697 11.0738 24.3217 11.028 24.2877 10.9684C24.1842 10.7892 24.2457 10.5597 24.4249 10.4562L25.724 9.70623C25.9032 9.60275 26.1323 9.66489 26.2362 9.8435C26.3397 10.0228 26.2782 10.2523 26.0989 10.3557L24.7999 11.1057C24.6802 11.1751 24.5366 11.1702 24.4249 11.1057ZM6.83079 15.4182C6.71843 15.3533 6.64268 15.2325 6.64265 15.093C6.64264 14.886 6.81066 14.718 7.01764 14.718L8.51761 14.718C8.72432 14.717 8.89232 14.885 8.8926 15.093C8.89261 15.3 8.7246 15.468 8.51762 15.468L7.01765 15.468C6.94974 15.4686 6.886 15.45 6.83079 15.4182ZM25.5804 15.4179C25.4687 15.3534 25.3926 15.2316 25.3929 15.0932C25.3922 14.8858 25.5602 14.7178 25.7679 14.7182L27.2678 14.7181C27.4748 14.7181 27.6432 14.8855 27.6428 15.0931C27.6435 15.3005 27.4755 15.4685 27.2679 15.4681L25.7679 15.4681C25.6993 15.4684 25.6356 15.4498 25.5804 15.4179ZM9.4861 11.1055L8.18706 10.3555C8.0078 10.252 7.9463 10.0225 8.0498 9.84327C8.1533 9.664 8.3828 9.60251 8.56206 9.70601L9.8611 10.456C10.0404 10.5595 10.1019 10.789 9.99836 10.9683C9.89486 11.1475 9.66537 11.209 9.4861 11.1055ZM25.7241 20.4805L24.425 19.7305C24.2458 19.627 24.1843 19.3975 24.2878 19.2183C24.3913 19.039 24.6208 18.9775 24.8 19.081L26.0991 19.831C26.2783 19.9345 26.3398 20.164 26.2363 20.3433C26.1328 20.5225 25.9033 20.584 25.7241 20.4805ZM12.6426 7.94829C12.5874 7.91642 12.5394 7.87053 12.5054 7.81102L11.7554 6.512C11.6519 6.33275 11.7134 6.10324 11.8927 5.99976C12.0729 5.896 12.3008 5.95739 12.4049 6.13702L13.1549 7.43604C13.259 7.61567 13.1975 7.84518 13.0183 7.94866C12.8975 8.01836 12.755 8.01317 12.6426 7.94829ZM22.0178 24.1864C21.9626 24.1545 21.9147 24.1086 21.8806 24.0491L21.1306 22.7501C21.0271 22.5709 21.0886 22.3414 21.2679 22.2379C21.4471 22.1344 21.6763 22.1965 21.7801 22.3751L22.5301 23.6742C22.6336 23.8534 22.5721 24.0829 22.3928 24.1864C22.2731 24.2558 22.1296 24.2509 22.0178 24.1864ZM16.9555 6.79322C16.8431 6.72834 16.7674 6.60753 16.7673 6.46809L16.7673 4.96812C16.7683 4.76086 16.936 4.59351 17.1433 4.59285C17.3496 4.59246 17.518 4.75983 17.5183 4.96784L17.5183 6.4678C17.5183 6.67479 17.3503 6.84279 17.1433 6.8428C17.0748 6.84305 17.0107 6.82509 16.9555 6.79322ZM21.2681 7.94856C21.0888 7.84506 21.0273 7.61556 21.1308 7.4363L21.8808 6.13726C21.9843 5.95799 22.2138 5.8965 22.3931 6C22.5723 6.1035 22.6338 6.33299 22.5303 6.51226L21.7803 7.8113C21.6768 7.99056 21.4473 8.05206 21.2681 7.94856Z" fill="white"/>
<path d="M7.80762 22.2613C7.49749 22.7985 7.68224 23.488 8.2194 23.7981L14.0651 27.1731C14.6022 27.4832 15.2917 27.2985 15.6018 26.7613C15.7466 26.5106 15.7797 26.2283 15.7235 25.9656L8.43593 21.7581C8.1803 21.8408 7.95237 22.0106 7.80762 22.2613Z" fill="white"/>
<path d="M16.4735 24.6665L9.18593 20.459C8.9303 20.5418 8.70237 20.7115 8.55762 20.9623C8.41287 21.213 8.3798 21.4953 8.43593 21.758L15.7235 25.9655C15.9792 25.8828 16.2071 25.713 16.3518 25.4623C16.4966 25.2115 16.5297 24.9293 16.4735 24.6665Z" fill="white"/>
<path d="M17.1018 24.1632C17.412 23.6261 17.2272 22.9366 16.6901 22.6265L10.8444 19.2515C10.3072 18.9413 9.61774 19.1261 9.30762 19.6632C9.16287 19.914 9.1298 20.1962 9.18593 20.459L16.4735 24.6665C16.7292 24.5837 16.9571 24.414 17.1018 24.1632Z" fill="white"/>
</g>
</g>
<defs>
<linearGradient id="paint0_linear_6157_160" x1="-0.262497" y1="0.426198" x2="31.0469" y2="32.0938" gradientUnits="userSpaceOnUse">
<stop stop-color="#F9B513"/>
<stop offset="1" stop-color="#EA601E"/>
</linearGradient>
<clipPath id="clip0_6157_160">
<rect width="32" height="32" rx="10" fill="white"/>
</clipPath>
<clipPath id="clip1_6157_160">
<rect width="24" height="24" fill="white" transform="translate(12) rotate(30)"/>
</clipPath>
</defs>
</svg>
