<svg width="30" height="30" viewBox="0 0 30 30" fill="none" xmlns="http://www.w3.org/2000/svg">
<path fill-rule="evenodd" clip-rule="evenodd" d="M11.0121 4.16288C13.6388 3.61237 16.3612 3.61238 18.9879 4.16288L19.5374 4.27803C21.8043 4.7531 23.7747 5.95303 25.1632 7.61452C25.3898 7.88572 25.3136 8.27676 25.0143 8.47502L16.7178 13.9689C15.6864 14.6519 14.3136 14.6519 13.2821 13.9689L4.98574 8.47503C4.68635 8.27677 4.61015 7.88573 4.8368 7.61453C6.2253 5.95303 8.19572 4.7531 10.4626 4.27803L11.0121 4.16288ZM4.15608 10.2317C3.80867 10.0016 3.32439 10.1335 3.19286 10.5149C3.11941 10.7279 3.05369 10.9444 2.99603 11.164C2.33466 13.6831 2.33466 16.3169 2.99603 18.836C3.90176 22.2858 6.79398 24.9531 10.4626 25.722L11.0121 25.8371C13.6388 26.3876 16.3612 26.3876 18.9879 25.8371L19.5374 25.722C23.206 24.9531 26.0982 22.2858 27.004 18.836C27.6653 16.3169 27.6653 13.6831 27.004 11.164C26.9463 10.9444 26.8806 10.7279 26.8071 10.5149C26.6756 10.1335 26.1913 10.0016 25.8439 10.2317L17.8631 15.5166C16.144 16.6549 13.856 16.6549 12.1369 15.5166L4.15608 10.2317Z" fill="white"/>
</svg>
