<svg width="241" height="85" viewBox="0 0 241 85" fill="none" xmlns="http://www.w3.org/2000/svg">
<g clip-path="url(#clip0_6153_127)">
<rect width="241" height="85" rx="16" fill="#F9F9F9"/>
<g clip-path="url(#clip1_6153_127)">
<path fill-rule="evenodd" clip-rule="evenodd" d="M73.302 48.9653C82.6445 54.738 90.3913 40.6296 80.6326 35.7806C80.147 35.5728 79.6382 35.4112 79.0832 35.2957C78.3895 35.1572 77.9963 35.2034 77.6263 34.7415C77.0251 33.9796 77.372 32.4556 79.0138 32.7096C92.1257 34.9725 89.3045 54.2993 76.1232 52.6829C74.8745 52.4982 73.8338 51.8055 73.117 52.9138C72.7932 53.4218 72.932 54.0684 73.2557 54.4609C73.5332 54.8073 74.0651 54.9458 74.6432 55.0844C83.6388 57.532 92.3801 48.4574 89.8595 39.5444C89.1426 36.7735 87.6857 34.5568 85.5351 32.7788C83.3151 31.1394 80.3782 29.5693 77.4182 30.1927C74.6663 31.0701 73.8801 34.6723 75.7532 36.5888C76.5163 37.3739 77.0713 37.674 78.5282 37.8588C82.8063 38.6669 83.9857 44.3703 80.3551 46.8179C78.6438 48.0417 75.9151 47.9032 74.3657 46.4023C73.0245 45.317 72.3307 43.008 72.9782 41.23C73.9263 34.9955 65.0926 34.3721 65.0695 41.3916C64.9076 43.2158 65.0463 45.0399 65.6707 46.7486C66.1795 47.8108 67.7288 47.6492 68.0757 46.587C68.2607 45.9867 67.9832 45.5248 67.8676 44.9476C67.4976 43.2158 67.5438 41.2993 68.122 39.6137C68.3301 39.198 68.9082 38.9209 69.4632 39.0133C71.7988 39.8677 69.1163 41.7842 70.5732 45.317C71.5213 47.603 71.7757 46.7487 70.7582 47.8108C70.4113 48.1572 69.0932 49.4964 68.7463 49.8197L67.7288 50.8588C67.4513 51.1359 66.9888 51.4822 67.012 52.1518C67.0582 53.214 68.3532 53.9529 69.2782 53.0062L73.302 48.9653Z" fill="#2B45E2"/>
<path fill-rule="evenodd" clip-rule="evenodd" d="M74.4121 44.3013C76.1927 47.5109 81.0721 46.1716 80.9565 42.5464C79.384 44.74 76.979 45.502 74.4121 44.3013Z" fill="#2B45E2"/>
<path fill-rule="evenodd" clip-rule="evenodd" d="M72.4926 29.5232C71.1976 29.8464 71.7064 31.6706 72.9089 31.3935C74.042 31.1395 73.7876 29.2692 72.4926 29.5232Z" fill="#2B45E2"/>
<path fill-rule="evenodd" clip-rule="evenodd" d="M70.5734 32.1555C69.579 32.3633 69.7872 34.0027 70.9203 33.7949C71.9609 33.5871 71.6834 31.9246 70.5734 32.1555Z" fill="#2B45E2"/>
<path fill-rule="evenodd" clip-rule="evenodd" d="M72.6544 34.5801C71.7294 34.8341 72.1456 36.1965 73.0475 35.9656C73.9031 35.7346 73.5794 34.303 72.6544 34.5801Z" fill="#2B45E2"/>
<path d="M94.3687 48.7346V36.104H97.028V46.4255H103.295V48.7346H94.3687Z" fill="black"/>
<path d="M109.839 48.7346C109.77 48.5037 109.7 48.1804 109.677 47.9033C109.076 48.5499 108.105 48.9886 106.833 48.9886C104.705 48.9886 103.711 47.9495 103.711 46.4255C103.711 43.7239 105.515 43.4238 108.012 43.0774C109.261 42.9158 109.585 42.6618 109.585 42.0152C109.585 41.4149 108.983 41.0454 108.012 41.0454C106.879 41.0454 106.44 41.5996 106.324 42.4309H104.012C104.058 40.4913 105.122 39.1289 108.128 39.1289C111.111 39.1289 112.128 40.4682 112.128 42.8234V48.7346H109.839ZM109.677 44.1396C109.423 44.3936 108.983 44.509 108.082 44.6937C106.671 44.9708 106.208 45.3634 106.208 46.1484C106.208 46.8412 106.625 47.1875 107.411 47.1875C108.683 47.1875 109.631 46.2639 109.654 45.1556L109.677 44.1396Z" fill="black"/>
<path d="M113.239 48.7346V35.9424H115.667V40.5836C116.361 39.5907 117.286 39.1289 118.442 39.1289C120.87 39.1289 122.281 41.1378 122.281 43.9548C122.281 47.1182 120.593 48.9886 118.234 48.9886C117.101 48.9886 116.222 48.5498 115.621 47.6031L115.598 48.7346H113.239ZM119.783 44.1165C119.783 42.1999 119.089 41.2301 117.656 41.2301C116.291 41.2301 115.574 42.2461 115.574 44.2781C115.574 45.8482 116.499 46.9566 117.679 46.9566C118.928 46.9566 119.783 45.8021 119.783 44.1165Z" fill="black"/>
<path d="M130.328 39.8215C130.189 38.5285 129.403 37.905 127.807 37.905C126.327 37.905 125.541 38.4361 125.541 39.3828C125.541 40.191 126.096 40.6297 127.507 40.9761C128.94 41.3224 130.328 41.6688 131.253 42.0844C132.363 42.5693 133.242 43.3544 133.242 45.1555C133.242 47.9263 131.137 49.1732 128.2 49.1732C125.079 49.1732 122.905 47.7878 122.835 44.9477H125.379C125.425 46.2407 126.512 47.0489 128.2 47.0489C129.773 47.0489 130.652 46.3793 130.652 45.2709C130.652 44.532 130.282 44.024 128.686 43.6777C127.114 43.3313 126.119 43.1004 125.217 42.7079C123.876 42.1075 123.113 41.1839 123.113 39.5906C123.113 37.3278 124.662 35.7114 127.738 35.7114C130.929 35.7114 132.733 37.4432 132.825 39.8677H130.328V39.8215Z" fill="black"/>
<path d="M136.225 44.6937C136.294 46.1023 137.104 47.0259 138.329 47.0259C139.139 47.0259 139.832 46.6333 140.017 45.9868H142.561C141.983 47.9033 140.457 48.9886 138.445 48.9886C135.323 48.9886 133.75 47.2799 133.75 43.8856C133.75 40.9992 135.415 39.1289 138.283 39.1289C141.15 39.1289 142.677 40.9992 142.677 44.6937H136.225ZM140.133 43.1467C140.087 41.7612 139.185 41.0916 138.214 41.0916C137.219 41.0916 136.41 41.8536 136.317 43.1467H140.133Z" fill="black"/>
<path d="M149.406 48.7346C149.337 48.5037 149.267 48.1804 149.244 47.9033C148.643 48.5499 147.672 48.9886 146.4 48.9886C144.272 48.9886 143.278 47.9495 143.278 46.4255C143.278 43.7239 145.082 43.4238 147.579 43.0774C148.828 42.9158 149.152 42.6618 149.152 42.0152C149.152 41.4149 148.55 41.0454 147.579 41.0454C146.446 41.0454 146.007 41.5996 145.891 42.4309H143.578C143.625 40.4913 144.688 39.1289 147.695 39.1289C150.678 39.1289 151.695 40.4682 151.695 42.8234V48.7346H149.406ZM149.221 44.1396C148.967 44.3936 148.527 44.509 147.625 44.6937C146.215 44.9708 145.752 45.3634 145.752 46.1484C145.752 46.8412 146.168 47.1875 146.955 47.1875C148.227 47.1875 149.175 46.2639 149.198 45.1556L149.221 44.1396Z" fill="black"/>
<path d="M152.782 48.7346V39.3598H155.118V40.4913C155.927 39.2444 156.898 39.1289 157.893 39.1289H158.217V41.6689C157.985 41.6227 157.754 41.6227 157.523 41.6227C155.997 41.6227 155.257 42.3847 155.257 43.8856V48.7577H152.782V48.7346Z" fill="black"/>
<path d="M166.773 45.3403C166.495 47.5108 164.738 48.9655 162.472 48.9655C159.928 48.9655 158.17 47.2799 158.17 43.9317C158.17 40.5836 159.928 39.1289 162.564 39.1289C164.992 39.1289 166.657 40.5143 166.819 42.731H164.322C164.183 41.7612 163.489 41.184 162.541 41.184C161.5 41.184 160.645 41.8536 160.645 43.8856C160.645 45.9175 161.5 46.9104 162.472 46.9104C163.443 46.9104 164.206 46.3563 164.299 45.3403H166.773Z" fill="black"/>
<path d="M173.503 48.7346V42.9157C173.503 41.5072 173.017 41.0685 171.907 41.0685C170.658 41.0685 169.988 42.0845 169.988 43.3545V48.7115H167.513V35.9424H169.988V40.5836C170.358 39.7523 171.491 39.1289 172.739 39.1289C174.659 39.1289 176 40.2603 176 42.1076V48.7346H173.503Z" fill="black"/>
</g>
</g>
<defs>
<clipPath id="clip0_6153_127">
<rect width="241" height="85" rx="16" fill="white"/>
</clipPath>
<clipPath id="clip1_6153_127">
<rect width="111" height="26" fill="white" transform="translate(65 29.5)"/>
</clipPath>
</defs>
</svg>
