<svg width="51" height="52" viewBox="0 0 51 52" fill="none" xmlns="http://www.w3.org/2000/svg">
<rect x="0.5" width="50" height="52" rx="16" fill="white"/>
<g clip-path="url(#clip0_6102_696)">
<path d="M34.1072 26.7617C34.1077 26.7608 34.1077 26.7608 34.1072 26.7617C35.1241 23.7484 34.1887 20.3286 31.7807 18.2513C29.9379 16.6631 27.5291 15.9813 25.1682 16.3804C22.8069 16.7803 20.7672 18.1973 19.5717 20.2679C18.7487 21.6934 18.3896 23.3094 18.5323 24.9402C18.6882 26.7161 18.3042 28.4632 17.4197 29.9952C17.2818 30.2342 17.3637 30.5402 17.6028 30.6782L25.397 35.1782C25.636 35.3162 25.942 35.2342 26.08 34.9952C26.9365 33.5117 28.2987 32.2843 30.0196 31.4477C31.9527 30.5073 33.4052 28.8436 34.1072 26.7617ZM23.0645 39.6662L14.8831 34.9427C14.6072 34.9266 14.3706 35.1364 14.3536 35.4118L14.2933 36.4104C14.2371 37.3618 14.7139 38.2479 15.5392 38.7244L19.4606 40.9884C20.2859 41.4649 21.2926 41.4353 22.088 40.9096L22.9226 40.358C23.1521 40.2064 23.2169 39.8962 23.0645 39.6662Z" fill="#FFE8D7"/>
<path d="M29.5981 24.9019C28.6429 24.3504 27.4176 24.6787 26.8661 25.634L26.3661 26.5L24.634 25.5L25.134 24.634C25.6855 23.6787 25.3572 22.4534 24.402 21.9019C23.4467 21.3504 22.2214 21.6787 21.6699 22.634C21.1184 23.5892 21.4467 24.8145 22.402 25.366L23.268 25.866L20.018 31.4952C19.88 31.7342 19.962 32.0402 20.201 32.1782C20.44 32.3162 20.746 32.2342 20.884 31.9952L24.134 26.366L27.5981 28.366C28.5534 28.9175 29.7787 28.5892 30.3302 27.634C30.8817 26.6787 30.5534 25.4534 29.5981 24.9019ZM22.5359 23.134C22.8114 22.6568 23.4248 22.4924 23.902 22.7679C24.3792 23.0434 24.5435 23.6568 24.268 24.134C23.9925 24.6111 23.3792 24.7755 22.902 24.5C22.4248 24.2245 22.2604 23.6111 22.5359 23.134ZM28.0981 27.5C27.6201 27.224 27.4566 26.6111 27.7321 26.134C28.0076 25.6568 28.6201 25.4919 29.0981 25.7679C29.5762 26.0439 29.7397 26.6568 29.4642 27.134C29.1887 27.6111 28.5762 27.776 28.0981 27.5Z" fill="#F28E46"/>
<path d="M25.7992 28.4821C25.5602 28.3441 25.2542 28.426 25.1162 28.6651L22.6162 32.9952C22.4782 33.2342 22.5602 33.5402 22.7992 33.6782C23.0382 33.8162 23.3442 33.7342 23.4822 33.4952L25.9822 29.1651C26.1202 28.926 26.0382 28.6201 25.7992 28.4821Z" fill="#F28E46"/>
<path d="M36.2095 18.9512C36.1359 18.9087 36.0719 18.8476 36.0265 18.7682C35.8885 18.5292 35.9705 18.2232 36.2095 18.0852L37.9415 17.0853C38.1805 16.9473 38.486 17.0301 38.6245 17.2683C38.7625 17.5073 38.6805 17.8133 38.4415 17.9513L36.7095 18.9512C36.5498 19.0438 36.3584 19.0372 36.2095 18.9512ZM12.7506 24.7012C12.6008 24.6147 12.4998 24.4536 12.4998 24.2676C12.4998 23.9917 12.7238 23.7677 12.9998 23.7677L14.9997 23.7676C15.2753 23.7663 15.4993 23.9903 15.4997 24.2676C15.4997 24.5436 15.2757 24.7676 14.9997 24.7676L12.9998 24.7676C12.9092 24.7685 12.8242 24.7437 12.7506 24.7012ZM37.7501 24.7008C37.6011 24.6148 37.4998 24.4524 37.5001 24.2678C37.4992 23.9914 37.7232 23.7673 38.0001 23.7678L40 23.7678C40.276 23.7678 40.5005 23.9909 40.5 24.2678C40.5009 24.5443 40.2769 24.7683 40 24.7678L38.0001 24.7678C37.9087 24.7682 37.8237 24.7433 37.7501 24.7008ZM16.291 18.951L14.559 17.951C14.32 17.813 14.238 17.507 14.376 17.268C14.514 17.0289 14.82 16.947 15.059 17.085L16.791 18.085C17.0301 18.223 17.1121 18.5289 16.9741 18.768C16.8361 19.007 16.5301 19.089 16.291 18.951ZM37.9417 31.451L36.2096 30.451C35.9706 30.313 35.8886 30.007 36.0266 29.768C36.1646 29.5289 36.4706 29.447 36.7096 29.585L38.4417 30.585C38.6807 30.723 38.7627 31.0289 38.6247 31.268C38.4867 31.507 38.1807 31.589 37.9417 31.451ZM20.4997 14.7413C20.4261 14.6988 20.3621 14.6377 20.3167 14.5583L19.3168 12.8263C19.1788 12.5873 19.2608 12.2813 19.4998 12.1433C19.7402 12.0049 20.0439 12.0868 20.1828 12.3263L21.1827 14.0583C21.3216 14.2978 21.2396 14.6039 21.0006 14.7418C20.8395 14.8348 20.6495 14.8278 20.4997 14.7413ZM33 36.3922C32.9264 36.3497 32.8624 36.2885 32.817 36.2091L31.8171 34.4771C31.6791 34.2381 31.7611 33.9321 32.0001 33.7941C32.2391 33.6561 32.5446 33.739 32.6831 33.9771L33.683 35.7092C33.821 35.9482 33.739 36.2542 33.5 36.3921C33.3404 36.4847 33.149 36.4782 33 36.3922ZM26.2502 13.2012C26.1004 13.1147 25.9994 12.9537 25.9993 12.7677L25.9993 10.7678C26.0007 10.4914 26.2242 10.2683 26.5007 10.2674C26.7758 10.2669 27.0003 10.49 27.0006 10.7674L27.0007 12.7674C27.0007 13.0433 26.7767 13.2673 26.5007 13.2673C26.4093 13.2677 26.3238 13.2437 26.2502 13.2012ZM32.0003 14.7417C31.7613 14.6037 31.6793 14.2977 31.8173 14.0587L32.8173 12.3266C32.9553 12.0876 33.2613 12.0056 33.5003 12.1436C33.7394 12.2816 33.8213 12.5876 33.6833 12.8266L32.6833 14.5587C32.5453 14.7977 32.2394 14.8797 32.0003 14.7417Z" fill="#F28E46"/>
<path d="M14.0537 33.8253C13.6402 34.5415 13.8865 35.4609 14.6027 35.8744L22.397 40.3744C23.1132 40.7879 24.0325 40.5415 24.446 39.8253C24.639 39.491 24.6831 39.1147 24.6083 38.7643L14.8915 33.1543C14.5506 33.2647 14.2467 33.491 14.0537 33.8253Z" fill="#F28E46"/>
<path d="M25.6083 37.0322L15.8915 31.4222C15.5506 31.5326 15.2467 31.759 15.0537 32.0933C14.8607 32.4275 14.8166 32.8039 14.8915 33.1543L24.6083 38.7643C24.9491 38.6539 25.253 38.4275 25.446 38.0933C25.639 37.759 25.6831 37.3826 25.6083 37.0322Z" fill="#F28E46"/>
<path d="M26.446 36.3612C26.8595 35.645 26.6132 34.7257 25.897 34.3122L18.1027 29.8122C17.3865 29.3987 16.4672 29.645 16.0537 30.3612C15.8607 30.6955 15.8166 31.0719 15.8915 31.4223L25.6083 37.0323C25.9491 36.9219 26.253 36.6955 26.446 36.3612Z" fill="#F28E46"/>
</g>
<defs>
<clipPath id="clip0_6102_696">
<rect width="32" height="32" fill="white" transform="translate(19.6436 4.14362) rotate(30)"/>
</clipPath>
</defs>
</svg>
