<svg width="137" height="40" viewBox="0 0 137 40" fill="none" xmlns="http://www.w3.org/2000/svg">
<path d="M92.8424 5.45421V14.9194H98.4102V17.1465H90.3369V5.45421H92.8424Z" fill="black"/>
<path d="M58.7403 5.17583C62.3594 4.89744 65.7 7.26374 65.8392 11.1612C66.1176 16.8681 59.4363 19.652 55.3997 16.3114C51.0846 12.6923 53.3117 5.59341 58.7403 5.17583ZM63.1945 11.4396C63.1945 9.35165 61.5242 7.54213 59.4363 7.54213C57.3484 7.54213 55.678 9.21246 55.678 11.4396C55.678 13.6667 57.3484 15.337 59.4363 15.337C61.5242 15.1978 63.1945 13.5275 63.1945 11.4396Z" fill="black"/>
<path d="M121.099 17.2857H118.315L115.949 13.5275L115.81 13.3883H113.722V13.5275C113.722 14.641 113.861 16.033 113.722 17.1465V17.2857H111.355V5.59341C111.355 5.59341 111.495 5.45422 111.495 5.59341C113.443 5.73261 115.81 5.31502 117.758 5.59341C121.517 6.15019 122.63 10.8828 119.29 12.8315C119.15 12.8315 118.872 12.9707 118.733 13.1099C118.733 13.1099 118.733 13.1099 118.733 13.2491L121.099 17.2857ZM116.923 7.82052H113.583V10.8828C113.583 10.8828 113.583 10.8828 113.583 11.022C113.722 11.022 113.722 11.022 113.861 11.022C114.696 11.022 115.67 11.022 116.506 11.022C117.341 11.022 118.176 10.7436 118.454 9.76924C118.733 8.79488 117.898 7.95971 116.923 7.82052Z" fill="black"/>
<path d="M98.6885 17.2857L101.751 5.45421H106.901L109.824 17.2857H107.319L106.623 14.641H101.89L101.194 17.2857H98.6885ZM102.586 12.2747H106.205L105.091 7.9597C105.091 7.9597 103.978 7.9597 103.839 7.9597C103.839 7.9597 103.699 7.9597 103.699 8.0989L102.586 12.2747Z" fill="black"/>
<path d="M85.7435 10.1868V5.5934H88.1098V17.2857H85.7435V12.5531H80.7325V17.2857H78.3662V5.5934C78.3662 5.5934 78.3662 5.5934 78.3662 5.45421H80.7325V9.90842L85.7435 10.1868Z" fill="black"/>
<path d="M66.6738 13.5275H69.1793C69.4577 14.5018 70.2929 15.1978 71.2672 15.1978C71.9632 15.1978 73.3551 15.1978 73.7727 14.3626C74.3295 13.2491 73.0768 12.8315 72.2416 12.5531C70.2929 11.8571 67.3698 11.718 67.0914 9.07327C66.6738 4.89744 72.6592 3.92308 75.1647 6.42858C75.5823 6.84616 76.2782 7.95971 76.2782 8.65568V8.79488H73.9119C73.6335 8.37729 73.4943 8.09891 73.0768 7.82052C72.2416 7.26374 70.4321 7.26374 69.8753 8.2381C69.3185 9.21246 70.4321 9.76924 71.2672 10.0476C73.216 10.7436 76.2782 10.8828 76.5566 13.6667C76.835 17.8425 71.2672 18.6777 68.6225 16.7289C67.6482 16.033 66.9522 14.7802 66.6738 13.5275Z" fill="black"/>
<path d="M44.5421 5.45421L47.1868 10.326C47.326 10.4652 47.4652 10.326 47.6044 10.1868C48.4396 8.93406 48.9964 7.54212 49.8315 6.28937C49.9707 6.01098 50.1099 5.7326 50.2491 5.5934H52.8938V5.7326L48.5788 13.1099V17.2857H46.2125V12.9707C44.8205 10.4652 43.2894 8.23809 42.0367 5.7326C42.0367 5.5934 41.8975 5.5934 41.8975 5.45421H44.5421Z" fill="black"/>
<path d="M64.7256 21.6007H67.9271L72.3813 29.8132H72.5205L72.3813 28.5604V21.6007H74.8868V33.293H71.8245L67.2311 24.9414C67.0919 24.9414 67.3703 26.1941 67.3703 26.1941V33.1539H65.004L64.7256 21.6007Z" fill="black"/>
<path d="M98.9678 21.6007L105.092 21.4615C109.129 21.7399 110.66 26.7509 106.763 28.8388C106.623 28.8388 106.345 28.978 106.345 29.1172L108.851 33.2931H106.067C105.232 32.0403 104.536 30.6484 103.7 29.3956H101.473V33.1539H99.107L98.9678 21.6007ZM101.473 27.0293H104.675C105.51 27.0293 106.345 26.3333 106.345 25.4982C106.345 24.663 105.649 23.967 104.814 23.967H101.473V27.0293Z" fill="black"/>
<path d="M56.7916 23.967V26.1941H61.6634C61.6634 26.1941 61.6634 26.1941 61.8026 26.1941V28.282H56.9308V30.7875H63.0553V33.1538H54.5645V21.4615C54.5645 21.4615 54.5645 21.4615 54.5645 21.3223H63.0553V23.5494L56.7916 23.967Z" fill="black"/>
<path d="M119.151 23.967H113.026V26.1941H117.898V28.2821H113.026V30.7875H119.151V33.0147H110.66V21.3223C110.66 21.3223 110.66 21.3223 110.66 21.1832H119.151V23.967C119.151 23.8278 119.151 23.8278 119.151 23.967Z" fill="black"/>
<path d="M129.869 24.8022H127.363C127.224 24.663 127.224 24.3846 126.946 24.2454C126.11 23.1319 123.048 23.2711 123.187 24.9414C123.326 26.0549 125.832 26.3333 126.667 26.6117C128.477 27.1685 130.147 28.0037 130.008 30.2308C129.869 33.8498 124.858 34.5458 122.352 33.0147C121.239 32.3187 120.403 31.0659 120.125 29.674H120.264H122.63C122.63 29.674 122.77 29.674 122.77 29.8132C122.909 29.9524 122.909 30.2308 123.048 30.37C123.744 31.4835 125.693 31.7619 126.806 31.2051C127.641 30.7875 127.641 29.674 126.946 29.2564C125.136 28.1429 121.099 28.4212 120.682 25.359C120.264 21.6007 124.858 20.4872 127.502 21.8791C128.755 22.2967 129.59 23.4103 129.869 24.8022Z" fill="black"/>
<path d="M89.5021 21.4615V28.8388C89.5021 31.3443 92.982 32.0403 94.0955 29.9524C94.2347 29.8132 94.3739 29.2564 94.3739 29.1172V21.4615H96.7402C96.7402 21.4615 96.8794 21.6007 96.7402 21.6007C96.601 23.967 96.8794 26.4725 96.7402 28.8388C96.601 31.6227 94.9307 33.4322 92.1468 33.5714C89.3629 33.7106 87.1358 32.0403 86.8574 29.1172V21.4615H86.9966H89.5021Z" fill="black"/>
<path d="M53.0334 21.4615L50.1104 33.1539V33.2931H45.0994H44.9602L42.0371 21.6007H44.5426L46.9089 30.9267C47.0481 30.9267 48.1616 30.9267 48.1616 30.9267L50.3888 21.7399C50.3888 21.7399 50.3888 21.6007 50.528 21.6007H50.6671L53.0334 21.4615Z" fill="black"/>
<path d="M82.2637 23.967V33.2931H79.8974V23.967H76.2783V23.8278V21.6007L76.4175 21.4615H86.1611V23.6887H82.2637V23.967Z" fill="black"/>
<path d="M0 39V11.7179C0.417582 6.15018 4.8718 1.41758 10.4396 1H37.0256V28.6996C36.7473 34.1282 32.4322 38.7216 27.1429 39H0ZM19.2088 9.49084H7.0989V9.63004L13.3626 20.6264H19.4872C19.348 20.9048 19.2088 21.1832 19.0696 21.3223C18.2344 22.8535 17.3993 24.3846 16.4249 25.9158C16.4249 26.0549 16.2857 26.0549 16.2857 26.1941H10.3004C10.3004 26.1941 10.1612 26.1941 10.3004 26.3333L13.2234 31.6227H19.0696H19.2088L25.4725 20.7656L22.2711 15.1978H28.2564V15.0586C29.2308 13.5275 30.2051 11.7179 31.1795 10.0476C31.3187 9.90843 31.3187 9.76923 31.3187 9.63004H25.3333C25.3333 9.63004 25.1941 9.63004 25.1941 9.76923L22.1319 15.337L19.2088 9.49084Z" fill="url(#paint0_linear_6095_452)"/>
<defs>
<linearGradient id="paint0_linear_6095_452" x1="-0.303722" y1="1.50611" x2="36.8746" y2="38.1456" gradientUnits="userSpaceOnUse">
<stop stop-color="#F9B513"/>
<stop offset="1" stop-color="#EA601E"/>
</linearGradient>
</defs>
</svg>
