<svg width="241" height="85" viewBox="0 0 241 85" fill="none" xmlns="http://www.w3.org/2000/svg">
<rect width="241" height="85" rx="16" fill="#F9F9F9"/>
<path fill-rule="evenodd" clip-rule="evenodd" d="M111.469 50.7083L116.219 55.1301C114.762 55.6667 113.057 55.935 111.105 55.935C103.401 55.935 99.5488 51.7695 99.5488 43.4448V39.6099L105.66 45.4459C105.698 45.8519 105.75 46.2277 105.815 46.5735C105.975 47.4251 106.265 48.178 106.673 48.8198C107.086 49.4677 107.654 49.9429 108.383 50.2515C109.111 50.56 110.019 50.7143 111.105 50.7143C111.229 50.7143 111.35 50.7123 111.469 50.7083Z" fill="#F07C00"/>
<path fill-rule="evenodd" clip-rule="evenodd" d="M99.5205 36.4073L105.546 42.0923V38.3433L99.5205 32.626V36.4073Z" fill="#F07C00"/>
<path fill-rule="evenodd" clip-rule="evenodd" d="M99.5488 29.2886L105.574 34.7949V29.2886H99.6529H99.5488Z" fill="#F07C00"/>
<path fill-rule="evenodd" clip-rule="evenodd" d="M116.624 44.9769L122.643 50.4731V43.4448V33.5519L129.264 33.5492L129.309 32.4139L129.302 29.9174L129.304 29.0647L116.612 29.0802L116.616 33.516L116.624 33.5163V43.4448C116.624 43.943 116.61 44.4107 116.582 44.848L116.624 44.8861V44.9769Z" fill="#009035"/>
<path fill-rule="evenodd" clip-rule="evenodd" d="M120.732 55.8012H122.625L122.655 53.6426L116.242 47.8037L115.873 48.747L115.487 49.3304L115.037 49.803L114.536 50.17L120.732 55.8012Z" fill="#F07C00"/>
<path fill-rule="evenodd" clip-rule="evenodd" d="M131.728 33.599C135.389 34.0402 135.707 38.2998 134.676 40.3335C133.212 43.2237 129.937 42.5053 126.146 42.5153C126.68 43.6437 131.86 50.7074 132.994 52.2943C133.242 52.6423 133.88 53.6332 134.5 54.3928H134.5L134.506 54.4005C134.531 54.4309 134.556 54.4609 134.58 54.4905L135.591 55.7123H141.479L141.216 55.3448H141.228L134.871 46.6558C135.61 46.0209 136.672 45.5705 137.15 45.1099C142.644 40.3125 140.911 29.7522 131.728 29.1062L131.728 33.599Z" fill="#009035"/>
</svg>
