<svg width="32" height="32" viewBox="0 0 32 32" fill="none" xmlns="http://www.w3.org/2000/svg">
<path d="M6.79688 26.7656C6.39688 26.7656 5.99688 26.6131 5.69188 26.3081C5.08187 25.6981 5.08187 24.7087 5.69188 24.0981L24.0987 5.69188C24.7087 5.08187 25.6981 5.08187 26.3088 5.69188C26.9188 6.30187 26.9188 7.29125 26.3088 7.90188L7.90125 26.3081C7.59625 26.6131 7.19687 26.7656 6.79688 26.7656Z" fill="#535862"/>
<path d="M25.2031 26.7656C24.8031 26.7656 24.4031 26.6131 24.0981 26.3081L5.69188 7.90125C5.08187 7.29125 5.08187 6.30187 5.69188 5.69125C6.30187 5.08125 7.29125 5.08125 7.90188 5.69125L26.3088 24.0981C26.9188 24.7081 26.9188 25.6975 26.3088 26.3081C26.0031 26.6131 25.6031 26.7656 25.2031 26.7656Z" fill="#535862"/>
</svg>
